<?xml version="1.0" standalone="no"?><!-- Generator: Gravit.io --><svg xmlns="http://www.w3.org/2000/svg" xmlns:xlink="http://www.w3.org/1999/xlink" style="isolation:isolate" viewBox="255 113 24.667 20" width="24.667" height="20"><g><path d=" M 257 121 C 255.893 121 255 121.893 255 123 C 255 124.107 255.893 125 257 125 C 258.107 125 259 124.107 259 123 C 259 121.893 258.107 121 257 121 Z  M 257 113 C 255.893 113 255 113.893 255 115 C 255 116.107 255.893 117 257 117 C 258.107 117 259 116.107 259 115 C 259 113.893 258.107 113 257 113 Z  M 257 129 C 255.893 129 255 129.907 255 131 C 255 132.093 255.907 133 257 133 C 258.093 133 259 132.093 259 131 C 259 129.907 258.107 129 257 129 Z  M 261 132.333 L 279.667 132.333 L 279.667 129.667 L 261 129.667 L 261 132.333 Z  M 261 124.333 L 279.667 124.333 L 279.667 121.667 L 261 121.667 L 261 124.333 Z  M 261 113.667 L 261 116.333 L 279.667 116.333 L 279.667 113.667 L 261 113.667 Z " fill="rgb(64,64,64)"/></g></svg>