<?xml version="1.0" standalone="no"?>
<!DOCTYPE svg PUBLIC "-//W3C//DTD SVG 20010904//EN"
 "http://www.w3.org/TR/2001/REC-SVG-20010904/DTD/svg10.dtd">
<svg version="1.0" xmlns="http://www.w3.org/2000/svg"
 width="700.000000pt" height="700.000000pt" viewBox="0 0 700.000000 700.000000"
 preserveAspectRatio="xMidYMid meet">
<metadata>
Created by potrace 1.11, written by Peter Selinger 2001-2013
</metadata>
<g transform="translate(0.000000,700.000000) scale(0.100000,-0.100000)"
fill="#000000" stroke="none">
<path d="M4965 6986 c-169 -41 -374 -201 -591 -461 -233 -278 -295 -415 -280
-619 8 -111 52 -271 101 -366 14 -26 12 -28 -68 -107 -278 -270 -639 -519
-1062 -731 -77 -38 -162 -79 -190 -91 -27 -12 -58 -26 -68 -32 -15 -8 -51 6
-180 70 -292 145 -499 205 -698 203 -99 -1 -130 -6 -221 -33 -170 -50 -357
-186 -616 -449 -61 -62 -267 -297 -308 -351 -10 -14 -46 -61 -79 -105 -127
-168 -204 -323 -221 -445 -47 -338 90 -743 409 -1212 l80 -118 -55 -107 c-31
-59 -100 -192 -153 -297 -54 -104 -132 -257 -175 -340 -43 -82 -121 -235 -175
-340 -105 -206 -266 -517 -352 -685 -42 -79 -56 -118 -58 -157 -7 -117 88
-216 202 -210 53 4 106 29 658 312 99 51 304 155 455 232 151 77 403 206 560
286 l286 146 89 -57 c167 -107 335 -194 503 -261 93 -37 215 -78 257 -87 11
-2 40 -8 65 -14 187 -44 421 -47 560 -6 217 64 540 310 865 660 88 94 220 277
264 365 60 120 66 151 65 346 0 151 -4 194 -22 265 -37 145 -92 287 -172 445
-74 146 -77 153 -64 183 49 117 179 382 236 480 26 46 48 85 48 88 0 3 106
173 134 215 143 212 271 371 435 541 74 77 87 87 110 81 14 -3 31 -9 36 -13
18 -14 158 -59 235 -76 95 -21 257 -25 326 -9 30 7 54 11 54 9 0 -11 123 53
189 98 232 157 476 411 570 593 57 112 65 317 17 480 -133 450 -638 1060
-1175 1419 -178 118 -352 203 -509 247 -90 25 -246 33 -317 15z m-194 -2223
c13 -16 12 -17 -3 -4 -10 7 -18 15 -18 17 0 8 8 3 21 -13z m-2960 -2970 c13
-16 12 -17 -3 -4 -10 7 -18 15 -18 17 0 8 8 3 21 -13z m-513 -47 c62 -71 406
-409 460 -451 28 -22 51 -43 52 -46 0 -4 -26 -20 -57 -36 -350 -178 -958 -490
-1047 -538 -16 -8 -31 -13 -34 -11 -4 5 51 116 213 431 45 88 145 282 221 432
76 149 142 269 147 266 5 -3 26 -24 45 -47z"/>
</g>
</svg>
