<?xml version="1.0" standalone="no"?><!-- Generator: Gravit.io --><svg xmlns="http://www.w3.org/2000/svg" xmlns:xlink="http://www.w3.org/1999/xlink" style="isolation:isolate" viewBox="260.001 300.082 20 4" width="20" height="4"><path d=" M 260.001 302.082 C 260.001 303.187 260.896 304.082 262.001 304.082 C 263.105 304.082 264.001 303.187 264.001 302.082 C 264.001 300.978 263.105 300.082 262.001 300.082 C 260.896 300.082 260.001 300.978 260.001 302.082 Z  M 268.001 302.082 C 268.001 303.187 268.896 304.082 270.001 304.082 C 271.105 304.082 272.001 303.187 272.001 302.082 C 272.001 300.978 271.105 300.082 270.001 300.082 C 268.896 300.082 268.001 300.978 268.001 302.082 Z  M 276.001 302.082 C 276.001 303.187 276.896 304.082 278.001 304.082 C 279.105 304.082 280.001 303.187 280.001 302.082 C 280.001 300.978 279.105 300.082 278.001 300.082 C 276.896 300.082 276.001 300.978 276.001 302.082 Z " fill="rgb(64,64,64)"/></svg>