<?xml version="1.0" standalone="no"?><!-- Generator: Gravit.io --><svg xmlns="http://www.w3.org/2000/svg" xmlns:xlink="http://www.w3.org/1999/xlink" style="isolation:isolate" viewBox="188.938 65.271 28 28" width="28" height="28"><path d=" M 216.938 79.271 C 216.938 87.003 210.668 93.271 202.938 93.271 C 195.205 93.271 188.938 87.003 188.938 79.271 C 188.938 71.539 195.205 65.271 202.938 65.271 C 210.668 65.271 216.938 71.539 216.938 79.271 Z " fill="rgb(244,67,54)"/><clipPath id="_clipPath_7CgLFUsTTclQLOhueWPCrI4uYCmeRsqP"><path d=" M 216.938 79.271 C 216.938 87.003 210.668 93.271 202.938 93.271 C 195.205 93.271 188.938 87.003 188.938 79.271 C 188.938 71.539 195.205 65.271 202.938 65.271 C 210.668 65.271 216.938 71.539 216.938 79.271 Z " fill="rgb(244,67,54)"/></clipPath><g clip-path="url(#_clipPath_7CgLFUsTTclQLOhueWPCrI4uYCmeRsqP)"><path d=" M 202.938 82.241 L 207.394 86.696 L 210.363 83.726 L 205.908 79.271 L 210.362 74.816 L 207.393 71.846 L 202.938 76.301 L 198.482 71.845 L 195.512 74.815 L 199.968 79.271 L 195.513 83.725 L 198.483 86.695 L 202.938 82.241 Z " fill-rule="evenodd" fill="rgb(255,255,255)"/></g></svg>