<?xml version="1.0" standalone="no"?><!-- Generator: Gravit.io --><svg xmlns="http://www.w3.org/2000/svg" xmlns:xlink="http://www.w3.org/1999/xlink" style="isolation:isolate" viewBox="134.197 387.589 45 43.808" width="45" height="43.808"><path d=" M 156.697 387.589 C 144.27 387.589 134.197 397.648 134.197 410.047 C 134.204 419.725 140.401 428.314 149.584 431.371 C 150.709 431.575 151.505 430.426 151.505 429.56 C 151.505 429.034 151.519 428.397 151.505 426.531 C 145.243 427.881 143.284 423.502 143.284 423.502 C 142.256 420.906 141.013 420.162 141.013 420.162 C 138.971 418.771 141.162 418.812 141.162 418.812 C 143.419 418.961 144.582 420.906 144.582 420.906 C 146.313 423.935 150.221 423.641 151.505 423.07 C 151.505 421.692 151.654 420.688 152.031 420.055 C 144.963 418.809 141.107 414.724 141.12 409.075 C 141.134 405.734 142.283 403.138 144.149 401.217 C 143.339 400.192 142.782 396.676 144.447 394.512 C 148.625 394.512 151.114 397.527 151.114 397.527 C 151.114 397.527 153.073 396.676 156.687 396.676 C 160.308 396.676 162.253 397.486 162.253 397.486 C 162.253 397.486 164.756 394.512 168.934 394.512 C 170.595 396.676 170.042 400.189 169.394 401.151 C 171.18 403.031 172.274 405.627 172.274 409.075 C 172.274 414.727 168.432 418.812 161.377 420.041 C 161.82 420.716 161.89 421.664 161.89 423.07 L 161.89 429.56 C 161.89 430.426 162.675 431.589 163.825 431.371 C 173.002 428.309 179.193 419.722 179.197 410.047 C 179.197 397.648 169.124 387.589 156.697 387.589 Z " fill="rgb(64,64,64)"/></svg>