<?xml version="1.0" standalone="no"?><!-- Generator: Gravit.io --><svg xmlns="http://www.w3.org/2000/svg" xmlns:xlink="http://www.w3.org/1999/xlink" style="isolation:isolate" viewBox="53.104 193.174 213.792 181.653" width="213.792" height="181.653"><g><path d=" M 209.44 370.098 L 209.44 370.098 L 209.44 370.098 Q 208.264 370.098 207.244 369.678 L 207.244 369.678 L 207.244 369.678 Q 206.224 369.258 205.468 368.478 L 205.468 368.478 L 205.468 368.478 Q 204.712 367.698 204.28 366.57 L 204.28 366.57 L 204.28 366.57 Q 203.848 365.442 203.848 364.002 L 203.848 364.002 L 203.848 364.002 Q 203.848 362.562 204.292 361.422 L 204.292 361.422 L 204.292 361.422 Q 204.736 360.282 205.468 359.49 L 205.468 359.49 L 205.468 359.49 Q 206.2 358.698 207.136 358.278 L 207.136 358.278 L 207.136 358.278 Q 208.072 357.858 209.08 357.858 L 209.08 357.858 L 209.08 357.858 Q 210.184 357.858 211.06 358.242 L 211.06 358.242 L 211.06 358.242 Q 211.936 358.626 212.524 359.346 L 212.524 359.346 L 212.524 359.346 Q 213.112 360.066 213.424 361.074 L 213.424 361.074 L 213.424 361.074 Q 213.736 362.082 213.736 363.33 L 213.736 363.33 L 213.736 363.33 Q 213.736 363.642 213.724 363.942 L 213.724 363.942 L 213.724 363.942 Q 213.712 364.242 213.664 364.458 L 213.664 364.458 L 205.792 364.458 L 205.792 364.458 Q 205.912 366.33 206.956 367.422 L 206.956 367.422 L 206.956 367.422 Q 208 368.514 209.68 368.514 L 209.68 368.514 L 209.68 368.514 Q 210.52 368.514 211.228 368.262 L 211.228 368.262 L 211.228 368.262 Q 211.936 368.01 212.584 367.602 L 212.584 367.602 L 213.28 368.898 L 213.28 368.898 Q 212.512 369.378 211.576 369.738 L 211.576 369.738 L 211.576 369.738 Q 210.64 370.098 209.44 370.098 Z  M 205.768 363.042 L 205.768 363.042 L 212.008 363.042 L 212.008 363.042 Q 212.008 361.266 211.252 360.342 L 211.252 360.342 L 211.252 360.342 Q 210.496 359.418 209.128 359.418 L 209.128 359.418 L 209.128 359.418 Q 208.504 359.418 207.94 359.658 L 207.94 359.658 L 207.94 359.658 Q 207.376 359.898 206.92 360.366 L 206.92 360.366 L 206.92 360.366 Q 206.464 360.834 206.164 361.506 L 206.164 361.506 L 206.164 361.506 Q 205.864 362.178 205.768 363.042 Z  M 218.584 369.81 L 216.616 369.81 L 216.616 358.146 L 218.248 358.146 L 218.416 359.826 L 218.488 359.826 L 218.488 359.826 Q 219.256 358.986 220.156 358.422 L 220.156 358.422 L 220.156 358.422 Q 221.056 357.858 222.112 357.858 L 222.112 357.858 L 222.112 357.858 Q 223.456 357.858 224.212 358.446 L 224.212 358.446 L 224.212 358.446 Q 224.968 359.034 225.328 360.09 L 225.328 360.09 L 225.328 360.09 Q 226.24 359.082 227.164 358.47 L 227.164 358.47 L 227.164 358.47 Q 228.088 357.858 229.168 357.858 L 229.168 357.858 L 229.168 357.858 Q 230.968 357.858 231.844 359.01 L 231.844 359.01 L 231.844 359.01 Q 232.72 360.162 232.72 362.418 L 232.72 362.418 L 232.72 369.81 L 230.752 369.81 L 230.752 362.682 L 230.752 362.682 Q 230.752 361.026 230.224 360.294 L 230.224 360.294 L 230.224 360.294 Q 229.696 359.562 228.592 359.562 L 228.592 359.562 L 228.592 359.562 Q 227.272 359.562 225.664 361.362 L 225.664 361.362 L 225.664 369.81 L 223.696 369.81 L 223.696 362.682 L 223.696 362.682 Q 223.696 361.026 223.168 360.294 L 223.168 360.294 L 223.168 360.294 Q 222.64 359.562 221.512 359.562 L 221.512 359.562 L 221.512 359.562 Q 220.192 359.562 218.584 361.362 L 218.584 361.362 L 218.584 369.81 Z  M 238.48 374.73 L 236.512 374.73 L 236.512 358.146 L 238.144 358.146 L 238.312 359.49 L 238.384 359.49 L 238.384 359.49 Q 239.176 358.818 240.124 358.338 L 240.124 358.338 L 240.124 358.338 Q 241.072 357.858 242.104 357.858 L 242.104 357.858 L 242.104 357.858 Q 243.232 357.858 244.096 358.278 L 244.096 358.278 L 244.096 358.278 Q 244.96 358.698 245.536 359.478 L 245.536 359.478 L 245.536 359.478 Q 246.112 360.258 246.412 361.35 L 246.412 361.35 L 246.412 361.35 Q 246.712 362.442 246.712 363.81 L 246.712 363.81 L 246.712 363.81 Q 246.712 365.298 246.304 366.462 L 246.304 366.462 L 246.304 366.462 Q 245.896 367.626 245.2 368.442 L 245.2 368.442 L 245.2 368.442 Q 244.504 369.258 243.592 369.678 L 243.592 369.678 L 243.592 369.678 Q 242.68 370.098 241.672 370.098 L 241.672 370.098 L 241.672 370.098 Q 240.856 370.098 240.052 369.738 L 240.052 369.738 L 240.052 369.738 Q 239.248 369.378 238.432 368.754 L 238.432 368.754 L 238.48 370.794 L 238.48 374.73 Z  M 241.336 368.442 L 241.336 368.442 L 241.336 368.442 Q 242.056 368.442 242.668 368.118 L 242.668 368.118 L 242.668 368.118 Q 243.28 367.794 243.724 367.206 L 243.724 367.206 L 243.724 367.206 Q 244.168 366.618 244.42 365.754 L 244.42 365.754 L 244.42 365.754 Q 244.672 364.89 244.672 363.81 L 244.672 363.81 L 244.672 363.81 Q 244.672 362.85 244.504 362.058 L 244.504 362.058 L 244.504 362.058 Q 244.336 361.266 243.964 360.702 L 243.964 360.702 L 243.964 360.702 Q 243.592 360.138 243.004 359.826 L 243.004 359.826 L 243.004 359.826 Q 242.416 359.514 241.6 359.514 L 241.6 359.514 L 241.6 359.514 Q 240.856 359.514 240.1 359.922 L 240.1 359.922 L 240.1 359.922 Q 239.344 360.33 238.48 361.098 L 238.48 361.098 L 238.48 367.218 L 238.48 367.218 Q 239.272 367.89 240.016 368.166 L 240.016 368.166 L 240.016 368.166 Q 240.76 368.442 241.336 368.442 Z  M 253.504 370.098 L 253.504 370.098 L 253.504 370.098 Q 252.568 370.098 251.932 369.81 L 251.932 369.81 L 251.932 369.81 Q 251.296 369.522 250.9 369.018 L 250.9 369.018 L 250.9 369.018 Q 250.504 368.514 250.336 367.794 L 250.336 367.794 L 250.336 367.794 Q 250.168 367.074 250.168 366.21 L 250.168 366.21 L 250.168 359.754 L 248.44 359.754 L 248.44 358.266 L 250.264 358.146 L 250.504 354.882 L 252.16 354.882 L 252.16 358.146 L 255.304 358.146 L 255.304 359.754 L 252.16 359.754 L 252.16 366.234 L 252.16 366.234 Q 252.16 367.314 252.556 367.902 L 252.556 367.902 L 252.556 367.902 Q 252.952 368.49 253.96 368.49 L 253.96 368.49 L 253.96 368.49 Q 254.272 368.49 254.632 368.394 L 254.632 368.394 L 254.632 368.394 Q 254.992 368.298 255.28 368.178 L 255.28 368.178 L 255.664 369.666 L 255.664 369.666 Q 255.184 369.834 254.62 369.966 L 254.62 369.966 L 254.62 369.966 Q 254.056 370.098 253.504 370.098 Z  M 258.136 374.826 L 258.136 374.826 L 258.136 374.826 Q 257.728 374.826 257.392 374.766 L 257.392 374.766 L 257.392 374.766 Q 257.056 374.706 256.768 374.586 L 256.768 374.586 L 257.152 373.026 L 257.152 373.026 Q 257.344 373.074 257.584 373.134 L 257.584 373.134 L 257.584 373.134 Q 257.824 373.194 258.04 373.194 L 258.04 373.194 L 258.04 373.194 Q 259.048 373.194 259.684 372.486 L 259.684 372.486 L 259.684 372.486 Q 260.32 371.778 260.68 370.698 L 260.68 370.698 L 260.944 369.834 L 256.264 358.146 L 258.304 358.146 L 260.68 364.602 L 260.68 364.602 Q 260.944 365.37 261.244 366.222 L 261.244 366.222 L 261.244 366.222 Q 261.544 367.074 261.808 367.89 L 261.808 367.89 L 261.904 367.89 L 261.904 367.89 Q 262.168 367.098 262.408 366.234 L 262.408 366.234 L 262.408 366.234 Q 262.648 365.37 262.888 364.602 L 262.888 364.602 L 264.976 358.146 L 266.896 358.146 L 262.504 370.77 L 262.504 370.77 Q 262.192 371.634 261.808 372.378 L 261.808 372.378 L 261.808 372.378 Q 261.424 373.122 260.896 373.662 L 260.896 373.662 L 260.896 373.662 Q 260.368 374.202 259.696 374.514 L 259.696 374.514 L 259.696 374.514 Q 259.024 374.826 258.136 374.826 Z  M 185.92 369.81 L 183.952 369.81 L 183.952 358.146 L 185.92 358.146 L 185.92 369.81 Z  M 184.96 355.746 L 184.96 355.746 L 184.96 355.746 Q 184.384 355.746 183.988 355.386 L 183.988 355.386 L 183.988 355.386 Q 183.592 355.026 183.592 354.474 L 183.592 354.474 L 183.592 354.474 Q 183.592 353.898 183.988 353.55 L 183.988 353.55 L 183.988 353.55 Q 184.384 353.202 184.96 353.202 L 184.96 353.202 L 184.96 353.202 Q 185.536 353.202 185.932 353.55 L 185.932 353.55 L 185.932 353.55 Q 186.328 353.898 186.328 354.474 L 186.328 354.474 L 186.328 354.474 Q 186.328 355.026 185.932 355.386 L 185.932 355.386 L 185.932 355.386 Q 185.536 355.746 184.96 355.746 Z  M 192.904 370.098 L 192.904 370.098 L 192.904 370.098 Q 191.656 370.098 190.528 369.642 L 190.528 369.642 L 190.528 369.642 Q 189.4 369.186 188.56 368.49 L 188.56 368.49 L 189.544 367.17 L 189.544 367.17 Q 190.312 367.794 191.116 368.178 L 191.116 368.178 L 191.116 368.178 Q 191.92 368.562 192.976 368.562 L 192.976 368.562 L 192.976 368.562 Q 194.128 368.562 194.704 368.034 L 194.704 368.034 L 194.704 368.034 Q 195.28 367.506 195.28 366.738 L 195.28 366.738 L 195.28 366.738 Q 195.28 366.282 195.04 365.946 L 195.04 365.946 L 195.04 365.946 Q 194.8 365.61 194.428 365.358 L 194.428 365.358 L 194.428 365.358 Q 194.056 365.106 193.576 364.914 L 193.576 364.914 L 193.576 364.914 Q 193.096 364.722 192.616 364.53 L 192.616 364.53 L 192.616 364.53 Q 191.992 364.314 191.368 364.038 L 191.368 364.038 L 191.368 364.038 Q 190.744 363.762 190.252 363.366 L 190.252 363.366 L 190.252 363.366 Q 189.76 362.97 189.448 362.442 L 189.448 362.442 L 189.448 362.442 Q 189.136 361.914 189.136 361.17 L 189.136 361.17 L 189.136 361.17 Q 189.136 360.474 189.412 359.862 L 189.412 359.862 L 189.412 359.862 Q 189.688 359.25 190.204 358.806 L 190.204 358.806 L 190.204 358.806 Q 190.72 358.362 191.464 358.11 L 191.464 358.11 L 191.464 358.11 Q 192.208 357.858 193.144 357.858 L 193.144 357.858 L 193.144 357.858 Q 194.248 357.858 195.172 358.242 L 195.172 358.242 L 195.172 358.242 Q 196.096 358.626 196.768 359.178 L 196.768 359.178 L 195.832 360.426 L 195.832 360.426 Q 195.232 359.97 194.584 359.682 L 194.584 359.682 L 194.584 359.682 Q 193.936 359.394 193.168 359.394 L 193.168 359.394 L 193.168 359.394 Q 192.064 359.394 191.548 359.898 L 191.548 359.898 L 191.548 359.898 Q 191.032 360.402 191.032 361.074 L 191.032 361.074 L 191.032 361.074 Q 191.032 361.482 191.248 361.782 L 191.248 361.782 L 191.248 361.782 Q 191.464 362.082 191.824 362.31 L 191.824 362.31 L 191.824 362.31 Q 192.184 362.538 192.652 362.718 L 192.652 362.718 L 192.652 362.718 Q 193.12 362.898 193.624 363.09 L 193.624 363.09 L 193.624 363.09 Q 194.248 363.33 194.884 363.594 L 194.884 363.594 L 194.884 363.594 Q 195.52 363.858 196.024 364.254 L 196.024 364.254 L 196.024 364.254 Q 196.528 364.65 196.852 365.226 L 196.852 365.226 L 196.852 365.226 Q 197.176 365.802 197.176 366.618 L 197.176 366.618 L 197.176 366.618 Q 197.176 367.338 196.9 367.962 L 196.9 367.962 L 196.9 367.962 Q 196.624 368.586 196.084 369.066 L 196.084 369.066 L 196.084 369.066 Q 195.544 369.546 194.74 369.822 L 194.74 369.822 L 194.74 369.822 Q 193.936 370.098 192.904 370.098 Z  M 108.4 370.098 L 108.4 370.098 L 108.4 370.098 Q 106.936 370.098 105.964 369.234 L 105.964 369.234 L 105.964 369.234 Q 104.992 368.37 104.992 366.786 L 104.992 366.786 L 104.992 366.786 Q 104.992 364.866 106.696 363.846 L 106.696 363.846 L 106.696 363.846 Q 108.4 362.826 112.144 362.418 L 112.144 362.418 L 112.144 362.418 Q 112.144 361.866 112.036 361.338 L 112.036 361.338 L 112.036 361.338 Q 111.928 360.81 111.664 360.402 L 111.664 360.402 L 111.664 360.402 Q 111.4 359.994 110.932 359.742 L 110.932 359.742 L 110.932 359.742 Q 110.464 359.49 109.744 359.49 L 109.744 359.49 L 109.744 359.49 Q 108.736 359.49 107.848 359.874 L 107.848 359.874 L 107.848 359.874 Q 106.96 360.258 106.264 360.738 L 106.264 360.738 L 105.496 359.37 L 105.496 359.37 Q 106.312 358.842 107.488 358.35 L 107.488 358.35 L 107.488 358.35 Q 108.664 357.858 110.08 357.858 L 110.08 357.858 L 110.08 357.858 Q 112.216 357.858 113.176 359.166 L 113.176 359.166 L 113.176 359.166 Q 114.136 360.474 114.136 362.658 L 114.136 362.658 L 114.136 369.81 L 112.504 369.81 L 112.336 368.418 L 112.264 368.418 L 112.264 368.418 Q 111.424 369.114 110.464 369.606 L 110.464 369.606 L 110.464 369.606 Q 109.504 370.098 108.4 370.098 Z  M 108.976 368.514 L 108.976 368.514 L 108.976 368.514 Q 109.816 368.514 110.56 368.118 L 110.56 368.118 L 110.56 368.118 Q 111.304 367.722 112.144 366.954 L 112.144 366.954 L 112.144 363.714 L 112.144 363.714 Q 110.68 363.906 109.684 364.17 L 109.684 364.17 L 109.684 364.17 Q 108.688 364.434 108.076 364.794 L 108.076 364.794 L 108.076 364.794 Q 107.464 365.154 107.188 365.622 L 107.188 365.622 L 107.188 365.622 Q 106.912 366.09 106.912 366.642 L 106.912 366.642 L 106.912 366.642 Q 106.912 367.65 107.512 368.082 L 107.512 368.082 L 107.512 368.082 Q 108.112 368.514 108.976 368.514 Z  M 119.776 369.81 L 117.808 369.81 L 117.808 358.146 L 119.44 358.146 L 119.608 360.258 L 119.68 360.258 L 119.68 360.258 Q 120.28 359.154 121.132 358.506 L 121.132 358.506 L 121.132 358.506 Q 121.984 357.858 122.992 357.858 L 122.992 357.858 L 122.992 357.858 Q 123.688 357.858 124.24 358.098 L 124.24 358.098 L 123.856 359.826 L 123.856 359.826 Q 123.568 359.73 123.328 359.682 L 123.328 359.682 L 123.328 359.682 Q 123.088 359.634 122.728 359.634 L 122.728 359.634 L 122.728 359.634 Q 121.984 359.634 121.18 360.234 L 121.18 360.234 L 121.18 360.234 Q 120.376 360.834 119.776 362.322 L 119.776 362.322 L 119.776 369.81 Z  M 130.744 370.098 L 130.744 370.098 L 130.744 370.098 Q 129.592 370.098 128.584 369.69 L 128.584 369.69 L 128.584 369.69 Q 127.576 369.282 126.844 368.502 L 126.844 368.502 L 126.844 368.502 Q 126.112 367.722 125.692 366.582 L 125.692 366.582 L 125.692 366.582 Q 125.272 365.442 125.272 364.002 L 125.272 364.002 L 125.272 364.002 Q 125.272 362.538 125.728 361.398 L 125.728 361.398 L 125.728 361.398 Q 126.184 360.258 126.952 359.466 L 126.952 359.466 L 126.952 359.466 Q 127.72 358.674 128.74 358.266 L 128.74 358.266 L 128.74 358.266 Q 129.76 357.858 130.888 357.858 L 130.888 357.858 L 130.888 357.858 Q 132.04 357.858 132.856 358.266 L 132.856 358.266 L 132.856 358.266 Q 133.672 358.674 134.296 359.226 L 134.296 359.226 L 133.288 360.522 L 133.288 360.522 Q 132.784 360.066 132.22 359.778 L 132.22 359.778 L 132.22 359.778 Q 131.656 359.49 130.96 359.49 L 130.96 359.49 L 130.96 359.49 Q 130.168 359.49 129.496 359.814 L 129.496 359.814 L 129.496 359.814 Q 128.824 360.138 128.344 360.738 L 128.344 360.738 L 128.344 360.738 Q 127.864 361.338 127.588 362.166 L 127.588 362.166 L 127.588 362.166 Q 127.312 362.994 127.312 364.002 L 127.312 364.002 L 127.312 364.002 Q 127.312 365.01 127.576 365.826 L 127.576 365.826 L 127.576 365.826 Q 127.84 366.642 128.308 367.23 L 128.308 367.23 L 128.308 367.23 Q 128.776 367.818 129.448 368.142 L 129.448 368.142 L 129.448 368.142 Q 130.12 368.466 130.912 368.466 L 130.912 368.466 L 130.912 368.466 Q 131.728 368.466 132.412 368.118 L 132.412 368.118 L 132.412 368.118 Q 133.096 367.77 133.648 367.29 L 133.648 367.29 L 134.512 368.61 L 134.512 368.61 Q 133.72 369.306 132.76 369.702 L 132.76 369.702 L 132.76 369.702 Q 131.8 370.098 130.744 370.098 Z  M 139.048 369.81 L 137.08 369.81 L 137.08 352.722 L 139.048 352.722 L 139.048 357.378 L 138.976 359.778 L 138.976 359.778 Q 139.816 358.986 140.728 358.422 L 140.728 358.422 L 140.728 358.422 Q 141.64 357.858 142.864 357.858 L 142.864 357.858 L 142.864 357.858 Q 144.712 357.858 145.564 359.01 L 145.564 359.01 L 145.564 359.01 Q 146.416 360.162 146.416 362.418 L 146.416 362.418 L 146.416 369.81 L 144.448 369.81 L 144.448 362.682 L 144.448 362.682 Q 144.448 361.026 143.92 360.294 L 143.92 360.294 L 143.92 360.294 Q 143.392 359.562 142.24 359.562 L 142.24 359.562 L 142.24 359.562 Q 141.328 359.562 140.632 360.018 L 140.632 360.018 L 140.632 360.018 Q 139.936 360.474 139.048 361.362 L 139.048 361.362 L 139.048 369.81 Z  M 152.104 369.81 L 150.136 369.81 L 150.136 358.146 L 152.104 358.146 L 152.104 369.81 Z  M 151.144 355.746 L 151.144 355.746 L 151.144 355.746 Q 150.568 355.746 150.172 355.386 L 150.172 355.386 L 150.172 355.386 Q 149.776 355.026 149.776 354.474 L 149.776 354.474 L 149.776 354.474 Q 149.776 353.898 150.172 353.55 L 150.172 353.55 L 150.172 353.55 Q 150.568 353.202 151.144 353.202 L 151.144 353.202 L 151.144 353.202 Q 151.72 353.202 152.116 353.55 L 152.116 353.55 L 152.116 353.55 Q 152.512 353.898 152.512 354.474 L 152.512 354.474 L 152.512 354.474 Q 152.512 355.026 152.116 355.386 L 152.116 355.386 L 152.116 355.386 Q 151.72 355.746 151.144 355.746 Z  M 160.864 369.81 L 158.56 369.81 L 154.36 358.146 L 156.4 358.146 L 158.608 364.77 L 158.608 364.77 Q 158.872 365.634 159.148 366.498 L 159.148 366.498 L 159.148 366.498 Q 159.424 367.362 159.688 368.202 L 159.688 368.202 L 159.784 368.202 L 159.784 368.202 Q 160.048 367.362 160.312 366.498 L 160.312 366.498 L 160.312 366.498 Q 160.576 365.634 160.84 364.77 L 160.84 364.77 L 163.048 358.146 L 164.992 358.146 L 160.864 369.81 Z  M 171.976 370.098 L 171.976 370.098 L 171.976 370.098 Q 170.8 370.098 169.78 369.678 L 169.78 369.678 L 169.78 369.678 Q 168.76 369.258 168.004 368.478 L 168.004 368.478 L 168.004 368.478 Q 167.248 367.698 166.816 366.57 L 166.816 366.57 L 166.816 366.57 Q 166.384 365.442 166.384 364.002 L 166.384 364.002 L 166.384 364.002 Q 166.384 362.562 166.828 361.422 L 166.828 361.422 L 166.828 361.422 Q 167.272 360.282 168.004 359.49 L 168.004 359.49 L 168.004 359.49 Q 168.736 358.698 169.672 358.278 L 169.672 358.278 L 169.672 358.278 Q 170.608 357.858 171.616 357.858 L 171.616 357.858 L 171.616 357.858 Q 172.72 357.858 173.596 358.242 L 173.596 358.242 L 173.596 358.242 Q 174.472 358.626 175.06 359.346 L 175.06 359.346 L 175.06 359.346 Q 175.648 360.066 175.96 361.074 L 175.96 361.074 L 175.96 361.074 Q 176.272 362.082 176.272 363.33 L 176.272 363.33 L 176.272 363.33 Q 176.272 363.642 176.26 363.942 L 176.26 363.942 L 176.26 363.942 Q 176.248 364.242 176.2 364.458 L 176.2 364.458 L 168.328 364.458 L 168.328 364.458 Q 168.448 366.33 169.492 367.422 L 169.492 367.422 L 169.492 367.422 Q 170.536 368.514 172.216 368.514 L 172.216 368.514 L 172.216 368.514 Q 173.056 368.514 173.764 368.262 L 173.764 368.262 L 173.764 368.262 Q 174.472 368.01 175.12 367.602 L 175.12 367.602 L 175.816 368.898 L 175.816 368.898 Q 175.048 369.378 174.112 369.738 L 174.112 369.738 L 174.112 369.738 Q 173.176 370.098 171.976 370.098 Z  M 168.304 363.042 L 168.304 363.042 L 174.544 363.042 L 174.544 363.042 Q 174.544 361.266 173.788 360.342 L 173.788 360.342 L 173.788 360.342 Q 173.032 359.418 171.664 359.418 L 171.664 359.418 L 171.664 359.418 Q 171.04 359.418 170.476 359.658 L 170.476 359.658 L 170.476 359.658 Q 169.912 359.898 169.456 360.366 L 169.456 360.366 L 169.456 360.366 Q 169 360.834 168.7 361.506 L 168.7 361.506 L 168.7 361.506 Q 168.4 362.178 168.304 363.042 Z  M 59.848 369.81 L 57.832 369.81 L 57.832 363.714 L 53.104 354.066 L 55.24 354.066 L 57.28 358.506 L 57.28 358.506 Q 57.664 359.37 58.024 360.21 L 58.024 360.21 L 58.024 360.21 Q 58.384 361.05 58.792 361.938 L 58.792 361.938 L 58.888 361.938 L 58.888 361.938 Q 59.296 361.05 59.704 360.21 L 59.704 360.21 L 59.704 360.21 Q 60.112 359.37 60.472 358.506 L 60.472 358.506 L 62.488 354.066 L 64.576 354.066 L 59.848 363.714 L 59.848 369.81 Z  M 71.056 370.098 L 71.056 370.098 L 71.056 370.098 Q 69.976 370.098 69.004 369.69 L 69.004 369.69 L 69.004 369.69 Q 68.032 369.282 67.288 368.502 L 67.288 368.502 L 67.288 368.502 Q 66.544 367.722 66.1 366.582 L 66.1 366.582 L 66.1 366.582 Q 65.656 365.442 65.656 364.002 L 65.656 364.002 L 65.656 364.002 Q 65.656 362.538 66.1 361.398 L 66.1 361.398 L 66.1 361.398 Q 66.544 360.258 67.288 359.466 L 67.288 359.466 L 67.288 359.466 Q 68.032 358.674 69.004 358.266 L 69.004 358.266 L 69.004 358.266 Q 69.976 357.858 71.056 357.858 L 71.056 357.858 L 71.056 357.858 Q 72.136 357.858 73.108 358.266 L 73.108 358.266 L 73.108 358.266 Q 74.08 358.674 74.824 359.466 L 74.824 359.466 L 74.824 359.466 Q 75.568 360.258 76.012 361.398 L 76.012 361.398 L 76.012 361.398 Q 76.456 362.538 76.456 364.002 L 76.456 364.002 L 76.456 364.002 Q 76.456 365.442 76.012 366.582 L 76.012 366.582 L 76.012 366.582 Q 75.568 367.722 74.824 368.502 L 74.824 368.502 L 74.824 368.502 Q 74.08 369.282 73.108 369.69 L 73.108 369.69 L 73.108 369.69 Q 72.136 370.098 71.056 370.098 Z  M 71.056 368.466 L 71.056 368.466 L 71.056 368.466 Q 71.8 368.466 72.424 368.142 L 72.424 368.142 L 72.424 368.142 Q 73.048 367.818 73.492 367.23 L 73.492 367.23 L 73.492 367.23 Q 73.936 366.642 74.176 365.826 L 74.176 365.826 L 74.176 365.826 Q 74.416 365.01 74.416 364.002 L 74.416 364.002 L 74.416 364.002 Q 74.416 362.994 74.176 362.166 L 74.176 362.166 L 74.176 362.166 Q 73.936 361.338 73.492 360.738 L 73.492 360.738 L 73.492 360.738 Q 73.048 360.138 72.424 359.814 L 72.424 359.814 L 72.424 359.814 Q 71.8 359.49 71.056 359.49 L 71.056 359.49 L 71.056 359.49 Q 70.312 359.49 69.688 359.814 L 69.688 359.814 L 69.688 359.814 Q 69.064 360.138 68.62 360.738 L 68.62 360.738 L 68.62 360.738 Q 68.176 361.338 67.936 362.166 L 67.936 362.166 L 67.936 362.166 Q 67.696 362.994 67.696 364.002 L 67.696 364.002 L 67.696 364.002 Q 67.696 365.01 67.936 365.826 L 67.936 365.826 L 67.936 365.826 Q 68.176 366.642 68.62 367.23 L 68.62 367.23 L 68.62 367.23 Q 69.064 367.818 69.688 368.142 L 69.688 368.142 L 69.688 368.142 Q 70.312 368.466 71.056 368.466 Z  M 82.936 370.098 L 82.936 370.098 L 82.936 370.098 Q 81.064 370.098 80.212 368.946 L 80.212 368.946 L 80.212 368.946 Q 79.36 367.794 79.36 365.538 L 79.36 365.538 L 79.36 358.146 L 81.352 358.146 L 81.352 365.274 L 81.352 365.274 Q 81.352 366.93 81.868 367.662 L 81.868 367.662 L 81.868 367.662 Q 82.384 368.394 83.536 368.394 L 83.536 368.394 L 83.536 368.394 Q 84.448 368.394 85.144 367.926 L 85.144 367.926 L 85.144 367.926 Q 85.84 367.458 86.68 366.426 L 86.68 366.426 L 86.68 358.146 L 88.648 358.146 L 88.648 369.81 L 87.016 369.81 L 86.848 367.986 L 86.776 367.986 L 86.776 367.986 Q 85.96 368.946 85.06 369.522 L 85.06 369.522 L 85.06 369.522 Q 84.16 370.098 82.936 370.098 Z  M 94.552 369.81 L 92.584 369.81 L 92.584 358.146 L 94.216 358.146 L 94.384 360.258 L 94.456 360.258 L 94.456 360.258 Q 95.056 359.154 95.908 358.506 L 95.908 358.506 L 95.908 358.506 Q 96.76 357.858 97.768 357.858 L 97.768 357.858 L 97.768 357.858 Q 98.464 357.858 99.016 358.098 L 99.016 358.098 L 98.632 359.826 L 98.632 359.826 Q 98.344 359.73 98.104 359.682 L 98.104 359.682 L 98.104 359.682 Q 97.864 359.634 97.504 359.634 L 97.504 359.634 L 97.504 359.634 Q 96.76 359.634 95.956 360.234 L 95.956 360.234 L 95.956 360.234 Q 95.152 360.834 94.552 362.322 L 94.552 362.322 L 94.552 369.81 Z " fill-rule="evenodd" fill="rgb(64,64,64)"/><path d=" M 87.742 193.174 C 83.479 193.174 80 196.652 80 200.916 L 80 306.722 C 80 312.418 84.627 317.045 90.323 317.045 L 229.677 317.045 C 235.373 317.045 240 312.418 240 306.722 L 240 226.722 C 240 222.459 236.521 218.98 232.258 218.98 L 224.516 218.98 L 224.516 216.399 C 224.516 212.136 221.037 208.658 216.774 208.658 L 151.502 208.658 C 149.462 208.663 147.504 207.858 146.057 206.42 L 136.441 196.903 C 134.029 194.509 130.766 193.168 127.368 193.174 L 87.742 193.174 Z  M 87.742 198.335 L 127.368 198.335 C 129.425 198.335 131.35 199.132 132.813 200.572 L 142.421 210.09 C 144.833 212.487 148.098 213.828 151.499 213.819 L 165.161 213.819 L 165.161 269.545 C 162.907 268.548 160.471 268.026 158.005 268.012 L 156.834 268.012 C 154.294 268.012 151.894 268.588 149.677 269.545 L 149.677 221.561 C 149.677 220.135 148.522 218.98 147.097 218.98 C 145.672 218.98 144.516 220.135 144.516 221.561 L 144.516 272.921 C 141.888 275.358 140.048 278.525 139.234 282.015 L 136.452 294.072 C 135.734 297.137 136.463 300.361 138.428 302.82 C 140.381 305.289 143.356 306.726 146.503 306.722 L 168.335 306.722 C 171.502 306.722 174.436 305.303 176.413 302.82 C 178.377 300.361 179.105 297.136 178.387 294.072 L 175.605 282.015 C 174.794 278.523 172.954 275.355 170.323 272.921 L 170.323 213.819 L 216.774 213.819 C 218.194 213.819 219.355 214.98 219.355 216.399 L 219.355 286.077 L 185.806 286.077 C 184.381 286.077 183.226 287.232 183.226 288.658 C 183.226 290.083 184.381 291.238 185.806 291.238 L 219.355 291.238 L 219.355 306.722 C 219.355 308.314 219.93 310.18 220.988 311.883 L 90.323 311.883 C 87.479 311.883 85.161 309.566 85.161 306.722 L 85.161 291.238 L 129.032 291.238 C 130.458 291.238 131.613 290.083 131.613 288.658 C 131.613 287.232 130.458 286.077 129.032 286.077 L 85.161 286.077 L 85.161 200.916 C 85.161 199.496 86.323 198.335 87.742 198.335 Z  M 154.839 218.98 C 153.413 218.98 152.258 220.135 152.258 221.561 C 152.258 222.986 153.413 224.141 154.839 224.141 L 160 224.141 C 161.425 224.141 162.581 222.986 162.581 221.561 C 162.581 220.135 161.425 218.98 160 218.98 L 154.839 218.98 Z  M 224.516 224.141 L 232.258 224.141 C 233.677 224.141 234.839 225.303 234.839 226.722 L 234.839 306.722 C 234.839 309.566 232.521 311.883 229.677 311.883 C 226.472 311.883 224.516 308.296 224.516 306.722 L 224.516 224.141 Z  M 154.839 231.883 C 153.413 231.883 152.258 233.039 152.258 234.464 C 152.258 235.889 153.413 237.045 154.839 237.045 L 160 237.045 C 161.425 237.045 162.581 235.889 162.581 234.464 C 162.581 233.039 161.425 231.883 160 231.883 L 154.839 231.883 Z  M 154.839 244.787 C 153.413 244.787 152.258 245.942 152.258 247.367 C 152.258 248.792 153.413 249.948 154.839 249.948 L 160 249.948 C 161.425 249.948 162.581 248.792 162.581 247.367 C 162.581 245.942 161.425 244.787 160 244.787 L 154.839 244.787 Z  M 154.839 257.69 C 153.413 257.69 152.258 258.845 152.258 260.27 C 152.258 261.696 153.413 262.851 154.839 262.851 L 160 262.851 C 161.425 262.851 162.581 261.696 162.581 260.27 C 162.581 258.845 161.425 257.69 160 257.69 L 154.839 257.69 Z  M 156.834 273.174 L 158.005 273.174 C 164.021 273.149 169.246 277.306 170.573 283.174 L 173.357 295.241 C 173.719 296.781 173.357 298.376 172.377 299.615 C 171.395 300.843 169.908 301.559 168.335 301.561 L 146.503 301.561 C 144.931 301.559 143.446 300.84 142.469 299.61 C 141.491 298.379 141.128 296.77 141.481 295.238 L 144.263 283.174 C 145.593 277.307 150.818 273.151 156.834 273.174 Z  M 152.258 286.077 C 150.833 286.077 149.677 287.232 149.677 288.658 C 149.677 290.083 150.833 291.238 152.258 291.238 L 162.581 291.238 C 164.006 291.238 165.161 290.083 165.161 288.658 C 165.161 287.232 164.006 286.077 162.581 286.077 L 152.258 286.077 Z " fill="rgb(64,64,64)"/></g></svg>