<?xml version="1.0" standalone="no"?><!-- Generator: Gravit.io --><svg xmlns="http://www.w3.org/2000/svg" xmlns:xlink="http://www.w3.org/1999/xlink" style="isolation:isolate" viewBox="23 17 20 30" width="20" height="30"><g><path d=" M 33 17 C 31.343 17 30 18.343 30 20 C 30 21.657 31.343 23 33 23 C 34.657 23 36 21.657 36 20 C 36 18.343 34.657 17 33 17 Z  M 33 29 C 31.343 29 30 30.343 30 32 C 30 33.657 31.343 35 33 35 C 34.657 35 36 33.657 36 32 C 36 30.343 34.657 29 33 29 Z  M 33 41 C 31.343 41 30 42.343 30 44 C 30 45.657 31.343 47 33 47 C 34.657 47 36 45.657 36 44 C 36 42.343 34.657 41 33 41 Z " fill="rgb(64,64,64)"/><rect x="23" y="17" width="20" height="30" transform="matrix(1,0,0,1,0,0)" fill="none"/></g></svg>