<?xml version="1.0" standalone="no"?><!-- Generator: Gravit.io --><svg xmlns="http://www.w3.org/2000/svg" xmlns:xlink="http://www.w3.org/1999/xlink" style="isolation:isolate" viewBox="35 291 23.684 18" width="23.684" height="18"><path d=" M 46.842 291 C 46.063 291 45.421 291.642 45.421 292.421 L 45.421 293.087 C 44.5 293.304 43.694 293.731 43.075 294.355 C 42.15 295.289 41.632 296.612 41.632 298.135 L 41.632 301.83 C 41.632 302.7 41.156 303.802 40.665 304.62 L 39.816 305.895 C 39.72 306.041 39.711 306.227 39.793 306.382 C 39.876 306.535 40.037 306.632 40.211 306.632 L 44.474 306.632 C 44.474 307.932 45.541 309 46.842 309 C 48.143 309 49.211 307.932 49.211 306.632 L 53.474 306.632 C 53.648 306.632 53.809 306.535 53.892 306.382 C 53.973 306.227 53.964 306.041 53.868 305.895 L 53.022 304.626 L 53.02 304.624 C 52.524 303.797 52.053 302.764 52.053 301.895 L 52.053 298.2 C 52.053 295.657 50.539 293.689 48.263 293.104 L 48.263 292.421 C 48.263 291.642 47.621 291 46.842 291 Z  M 46.842 291.947 C 47.105 291.947 47.316 292.158 47.316 292.421 L 47.316 292.948 C 47.21 292.939 47.107 292.928 46.999 292.925 C 46.949 292.906 46.896 292.896 46.842 292.895 C 46.79 292.895 46.74 292.904 46.692 292.923 C 46.581 292.925 46.476 292.935 46.368 292.943 L 46.368 292.421 C 46.368 292.158 46.579 291.947 46.842 291.947 Z  M 36.648 292.647 C 35.592 294.364 35 296.409 35 298.579 C 35 300.749 35.592 302.794 36.648 304.511 L 37.457 304.015 C 36.493 302.448 35.947 300.577 35.947 298.579 C 35.947 296.58 36.493 294.71 37.457 293.142 L 36.648 292.647 Z  M 57.036 292.647 L 56.227 293.142 C 57.192 294.71 57.737 296.58 57.737 298.579 C 57.737 300.577 57.191 302.448 56.227 304.015 L 57.036 304.511 C 58.092 302.794 58.684 300.749 58.684 298.579 C 58.684 296.409 58.092 294.364 57.036 292.647 Z  M 46.842 293.842 C 49.453 293.842 51.105 295.58 51.105 298.2 L 51.105 301.895 C 51.105 303.085 51.675 304.224 52.208 305.114 C 52.214 305.12 52.217 305.127 52.221 305.133 L 52.588 305.684 L 41.096 305.684 L 41.463 305.133 C 41.466 305.127 41.47 305.12 41.476 305.114 C 42.015 304.217 42.579 303.02 42.579 301.83 L 42.579 298.136 C 42.579 296.825 43.012 295.765 43.748 295.023 C 44.483 294.28 45.534 293.842 46.842 293.842 Z  M 38.702 293.908 C 37.84 295.302 37.368 296.853 37.368 298.579 C 37.368 300.318 37.903 301.917 38.699 303.244 L 39.511 302.755 C 38.793 301.557 38.316 300.124 38.316 298.579 C 38.316 297.021 38.728 295.667 39.508 294.406 L 38.702 293.908 Z  M 54.982 293.908 L 54.177 294.406 C 54.956 295.666 55.368 297.021 55.368 298.579 C 55.368 300.124 54.891 301.556 54.171 302.755 L 54.985 303.244 C 55.781 301.917 56.316 300.318 56.316 298.579 C 56.316 296.852 55.844 295.302 54.982 293.908 Z  M 45.421 306.632 L 48.263 306.632 C 48.263 307.416 47.627 308.053 46.842 308.053 C 46.057 308.053 45.421 307.416 45.421 306.632 Z " fill="rgb(64,64,64)"/></svg>