<?xml version="1.0" standalone="no"?><!-- Generator: Gravit.io --><svg xmlns="http://www.w3.org/2000/svg" xmlns:xlink="http://www.w3.org/1999/xlink" style="isolation:isolate" viewBox="70 291 18.024 18" width="18.024" height="18"><path d=" M 77.254 291 C 75.914 291.025 74.925 291.441 74.324 292.242 C 73.614 293.188 73.479 294.654 73.938 296.484 C 73.775 296.69 73.667 297.003 73.715 297.41 C 73.81 298.222 74.119 298.551 74.383 298.688 C 74.511 299.339 74.863 300.079 75.203 300.41 C 75.268 300.944 75.244 301.205 75.156 301.664 C 74.944 302.191 74.199 302.492 73.34 302.836 C 71.921 303.404 70.156 304.109 70.024 306.352 L 70 306.75 L 79.633 306.75 C 80.412 308.093 81.862 309 83.524 309 C 86.005 309 88.024 306.981 88.024 304.5 C 88.024 302.09 86.116 300.123 83.734 300.012 C 83.696 299.751 83.696 299.487 83.734 299.227 C 84.044 298.929 84.328 298.286 84.438 297.738 C 84.673 297.608 84.94 297.302 85.024 296.602 C 85.065 296.251 84.961 295.979 84.825 295.793 C 85.063 294.926 85.277 293.352 84.66 292.383 C 84.395 291.965 83.995 291.699 83.5 291.598 C 83.189 291.214 82.607 291 81.836 291 C 81.217 291.012 80.686 291.125 80.242 291.328 C 80.587 291.542 80.88 291.83 81.098 292.172 C 81.969 293.541 81.644 295.535 81.45 296.379 C 81.606 296.713 81.66 297.104 81.613 297.504 C 81.512 298.368 81.19 298.862 80.863 299.145 C 80.719 299.685 80.451 300.314 80.102 300.75 C 80.089 300.974 80.105 301.198 80.149 301.418 C 80.159 301.433 80.184 301.453 80.207 301.477 C 80.039 301.661 79.887 301.852 79.75 302.063 C 79.602 301.935 79.491 301.81 79.434 301.664 C 79.341 301.256 79.325 300.835 79.387 300.422 C 79.74 300.092 80.085 299.325 80.207 298.688 C 80.471 298.551 80.78 298.22 80.875 297.41 C 80.923 297.008 80.8 296.702 80.641 296.496 C 80.916 295.509 81.174 293.685 80.465 292.571 C 80.159 292.088 79.714 291.789 79.141 291.68 C 78.795 291.238 78.137 291 77.254 291 L 77.254 291 Z  M 83.524 300.75 C 85.599 300.75 87.274 302.424 87.274 304.5 C 87.274 306.576 85.599 308.25 83.524 308.25 C 81.448 308.25 79.774 306.576 79.774 304.5 C 79.774 302.424 81.448 300.75 83.524 300.75 Z  M 83.149 302.25 L 83.149 304.125 L 81.274 304.125 L 81.274 304.875 L 83.149 304.875 L 83.149 306.75 L 83.899 306.75 L 83.899 304.875 L 85.774 304.875 L 85.774 304.125 L 83.899 304.125 L 83.899 302.25 L 83.149 302.25 Z " fill="rgb(64,64,64)"/></svg>