<?xml version="1.0" standalone="no"?><!-- Generator: Gravit.io --><svg xmlns="http://www.w3.org/2000/svg" xmlns:xlink="http://www.w3.org/1999/xlink" style="isolation:isolate" viewBox="98.143 291.24 17.374 17.684" width="17.374" height="17.684"><path d=" M 102.686 307.648 C 104.574 308.738 106.732 309.203 108.789 308.755 C 110.846 308.308 112.782 306.946 114.218 304.459 C 116.561 300.401 115.811 294.441 111.345 291.863 L 111.277 291.823 C 110.344 291.308 109.28 291.112 108.278 291.326 C 107.276 291.54 106.347 292.172 105.717 293.264 C 105.369 293.867 105.38 294.509 105.307 294.963 L 105.302 294.973 C 105.204 295.637 104.994 295.847 104.63 296.001 C 104.267 296.155 103.699 296.187 103.027 296.257 C 101.684 296.399 99.918 296.791 98.608 299.097 C 98.142 299.903 97.929 301.3 98.436 302.882 C 98.944 304.464 100.191 306.207 102.686 307.648 Z  M 103.046 307.024 C 100.678 305.657 99.56 304.063 99.11 302.66 C 98.659 301.257 98.905 300.022 99.231 299.457 C 100.428 297.35 101.815 297.113 103.105 296.978 C 103.75 296.91 104.364 296.893 104.913 296.658 C 105.46 296.425 105.882 295.904 106.006 295.08 C 106.006 295.077 106.012 295.074 106.012 295.071 C 106.095 294.538 106.114 294.016 106.341 293.624 C 106.881 292.688 107.621 292.199 108.433 292.025 C 109.243 291.853 110.127 292.01 110.927 292.452 L 110.985 292.486 C 115.063 294.84 115.752 300.363 113.595 304.099 C 112.24 306.445 110.487 307.652 108.634 308.055 C 106.782 308.459 104.806 308.04 103.046 307.025 L 103.046 307.024 Z  M 103.528 306.055 C 103.937 306.292 104.424 306.278 104.85 306.104 C 105.277 305.932 105.659 305.604 105.921 305.151 C 106.182 304.698 106.275 304.202 106.212 303.747 C 106.149 303.291 105.917 302.862 105.508 302.626 C 105.098 302.39 104.612 302.404 104.185 302.577 C 103.759 302.75 103.376 303.078 103.115 303.531 C 102.853 303.984 102.761 304.479 102.824 304.934 C 102.887 305.39 103.119 305.819 103.528 306.055 Z  M 103.888 305.432 C 103.695 305.321 103.568 305.116 103.53 304.836 C 103.492 304.556 103.553 304.212 103.738 303.891 C 103.924 303.569 104.191 303.345 104.453 303.238 C 104.714 303.131 104.955 303.138 105.148 303.25 C 105.34 303.361 105.467 303.565 105.505 303.846 C 105.543 304.125 105.483 304.469 105.297 304.791 C 105.112 305.112 104.844 305.336 104.582 305.443 C 104.321 305.55 104.08 305.543 103.888 305.432 Z  M 107.857 306.477 C 108.267 306.713 108.754 306.699 109.18 306.526 C 109.606 306.353 109.989 306.025 110.25 305.572 C 110.512 305.119 110.604 304.624 110.541 304.168 C 110.478 303.712 110.246 303.283 109.837 303.047 C 109.428 302.811 108.941 302.825 108.515 302.998 C 108.088 303.171 107.706 303.499 107.444 303.952 C 107.183 304.405 107.09 304.9 107.153 305.356 C 107.217 305.812 107.448 306.24 107.857 306.477 Z  M 100.998 302.517 C 101.408 302.753 101.895 302.739 102.321 302.566 C 102.747 302.393 103.13 302.065 103.391 301.612 C 103.653 301.159 103.745 300.664 103.682 300.208 C 103.619 299.752 103.387 299.323 102.978 299.087 C 102.569 298.851 102.082 298.865 101.656 299.038 C 101.23 299.211 100.847 299.539 100.585 299.992 C 100.324 300.445 100.231 300.94 100.295 301.396 C 100.358 301.852 100.589 302.28 100.998 302.517 Z  M 108.217 305.853 C 108.025 305.742 107.898 305.537 107.86 305.257 C 107.822 304.977 107.882 304.634 108.068 304.312 C 108.253 303.99 108.521 303.766 108.783 303.659 C 109.044 303.552 109.285 303.56 109.477 303.671 C 109.67 303.782 109.797 303.986 109.835 304.267 C 109.873 304.547 109.812 304.89 109.627 305.212 C 109.441 305.533 109.174 305.757 108.912 305.865 C 108.651 305.971 108.41 305.964 108.217 305.853 Z  M 101.358 301.893 C 101.166 301.782 101.039 301.577 101.001 301.297 C 100.963 301.017 101.023 300.674 101.209 300.352 C 101.395 300.03 101.662 299.806 101.924 299.699 C 102.185 299.592 102.426 299.6 102.618 299.711 C 102.811 299.822 102.938 300.026 102.976 300.307 C 103.014 300.587 102.954 300.93 102.768 301.252 C 102.582 301.573 102.315 301.797 102.053 301.905 C 101.792 302.011 101.551 302.004 101.358 301.893 Z  M 110.509 302.604 C 110.918 302.84 111.405 302.826 111.832 302.653 C 112.258 302.48 112.64 302.152 112.902 301.699 C 113.164 301.246 113.256 300.751 113.193 300.295 C 113.13 299.839 112.898 299.41 112.489 299.174 C 112.08 298.938 111.593 298.952 111.166 299.125 C 110.74 299.298 110.358 299.626 110.096 300.079 C 109.835 300.532 109.742 301.027 109.805 301.483 C 109.868 301.939 110.1 302.367 110.509 302.604 Z  M 110.869 301.98 C 110.677 301.869 110.55 301.664 110.512 301.384 C 110.474 301.104 110.534 300.761 110.72 300.439 C 110.905 300.117 111.173 299.893 111.434 299.786 C 111.696 299.679 111.937 299.687 112.129 299.798 C 112.321 299.909 112.448 300.113 112.486 300.394 C 112.525 300.674 112.464 301.017 112.278 301.339 C 112.093 301.66 111.826 301.884 111.564 301.992 C 111.302 302.098 111.061 302.091 110.869 301.98 Z  M 108.412 297.236 C 109.448 297.834 110.764 297.482 111.363 296.445 C 111.961 295.409 111.608 294.093 110.572 293.495 C 109.536 292.896 108.22 293.249 107.621 294.285 C 107.023 295.322 107.376 296.638 108.412 297.236 Z  M 108.772 296.612 C 108.062 296.202 107.835 295.355 108.245 294.645 C 108.655 293.935 109.502 293.708 110.212 294.118 C 110.922 294.528 111.149 295.375 110.739 296.085 C 110.329 296.795 109.482 297.022 108.772 296.612 Z " fill="rgb(64,64,64)"/></svg>