<svg xmlns="http://www.w3.org/2000/svg" viewBox="22.128 151.205 274.139 161.497" style="isolation:isolate">
  <path fill="#ebebeb" d="M115.193 163.589h89.614a6.716 6.716 0 0 1 6.713 6.713v110.515a6.716 6.716 0 0 1-6.713 6.714h-89.614a6.716 6.716 0 0 1-6.713-6.714V170.302a6.716 6.716 0 0 1 6.713-6.713z"/>
  <path fill="#404040" fill-rule="evenodd" d="M219.472 242.819h8.587v26.134h-7.243l-9.931-11.872v11.872h-8.586v-26.134h7.242l9.931 11.872v-11.872zm23.371 26.507q-3.398 0-6.104-1.363-2.707-1.362-4.238-3.77-1.53-2.408-1.53-5.47 0-3.061 1.53-5.469 1.531-2.408 4.238-3.752 2.706-1.344 6.104-1.344 3.434 0 6.141 1.344t4.219 3.752q1.512 2.408 1.512 5.469 0 3.062-1.512 5.47t-4.219 3.77q-2.707 1.363-6.141 1.363zm0-6.571q1.456 0 2.389-1.064.933-1.064.933-2.968t-.933-2.949q-.933-1.045-2.389-1.045-1.456 0-2.39 1.045-.933 1.045-.933 2.949t.933 2.968q.934 1.064 2.39 1.064zm27.552-.373l2.016 5.861q-1.904 1.083-5.19 1.083-4.293 0-6.608-2.072-2.314-2.072-2.314-6.216v-5.227h-2.8v-6.16h2.8v-5.712h8.437v5.712h4.181v6.16h-4.181v5.152q0 .934.485 1.456.486.523 1.27.523 1.082 0 1.904-.56zm25.872-3.659q0 .187-.112 1.979h-14.187q.448 1.157 1.493 1.773 1.046.616 2.614.616 1.344 0 2.258-.336.915-.336 1.998-1.157l4.405 4.443q-2.987 3.285-8.923 3.285-3.696 0-6.496-1.363-2.8-1.362-4.33-3.789-1.531-2.427-1.531-5.451 0-3.061 1.512-5.469 1.512-2.408 4.144-3.752 2.632-1.344 5.917-1.344 3.099 0 5.656 1.232 2.558 1.232 4.07 3.621 1.512 2.39 1.512 5.712zm-11.163-4.816q-1.307 0-2.165.71-.859.709-1.12 2.016h6.57q-.261-1.27-1.12-1.998-.858-.728-2.165-.728zM105.12 268.953v-19.302h-7.653v-6.832h24.117v6.832h-7.653v19.302h-8.811zm32.667-20.795q3.77 0 6.066 2.277 2.296 2.278 2.296 6.87v11.648h-8.437v-10.192q0-3.51-2.501-3.51-1.419 0-2.296.99-.878.989-.878 3.117v9.595H123.6v-27.702h8.437v8.923q2.352-2.016 5.75-2.016zm21.168 0q5.376 0 8.213 2.408 2.837 2.408 2.837 7.411v10.976h-7.84v-2.688q-1.456 3.061-5.786 3.061-2.427 0-4.126-.84-1.698-.84-2.576-2.277-.877-1.438-.877-3.23 0-3.024 2.315-4.592 2.314-1.568 7.018-1.568h3.398q-.411-2.389-3.846-2.389-1.381 0-2.8.429-1.418.43-2.426 1.176l-2.688-5.562q1.754-1.083 4.237-1.699 2.483-.616 4.947-.616zm-.038 16.091q.896 0 1.606-.486.709-.485 1.045-1.456v-1.418h-2.091q-2.576 0-2.576 1.717 0 .709.542 1.176.541.467 1.474.467zm27.776-1.867l2.016 5.861q-1.904 1.083-5.189 1.083-4.293 0-6.608-2.072-2.315-2.072-2.315-6.216v-5.227h-2.8v-6.16h2.8v-5.712h8.438v5.712h4.181v6.16h-4.181v5.152q0 .934.485 1.456.485.523 1.269.523 1.083 0 1.904-.56zM34.709 242.819q3.622 0 6.31 1.195 2.688 1.195 4.144 3.435t1.456 5.226q0 2.987-1.456 5.227t-4.144 3.435q-2.688 1.194-6.31 1.194h-3.77v6.422h-8.811v-26.134h12.581zm-.56 12.918q1.792 0 2.688-.803.896-.803.896-2.259t-.896-2.258q-.896-.803-2.688-.803h-3.21v6.123h3.21zm15.456 13.216v-20.422h8.438v20.422h-8.438zm4.219-22.064q-2.277 0-3.677-1.214-1.4-1.213-1.4-3.08 0-1.866 1.4-3.08 1.4-1.213 3.677-1.213 2.315 0 3.696 1.157 1.381 1.158 1.381 2.987 0 1.941-1.381 3.192-1.381 1.251-3.696 1.251zm22.139 1.269q3.77 0 6.066 2.277 2.296 2.278 2.296 6.87v11.648h-8.437v-10.192q0-3.51-2.501-3.51-1.419 0-2.296.99-.878.989-.878 3.117v9.595h-8.437v-20.422h8.027v2.016q1.194-1.194 2.762-1.792 1.568-.597 3.398-.597zM227.265 308.615q-1.176 0-2.128-.402-.952-.401-1.624-1.092-.672-.69-1.036-1.605t-.364-1.923q0-1.045.355-1.969.355-.924 1.027-1.624.672-.7 1.633-1.111.961-.41 2.156-.41 1.195 0 2.137.41.943.411 1.606 1.102.662.69 1.008 1.605.345.915.345 1.904 0 .243-.009.467-.01.224-.047.373h-7.56q.056.579.28 1.027.224.448.579.765.354.317.802.485.448.168.934.168.746 0 1.409-.364t.905-.961l2.147.597q-.541 1.12-1.727 1.839-1.185.719-2.828.719zm-2.538-5.899h5.077q-.093-1.101-.812-1.764-.719-.663-1.745-.663-.504 0-.943.178-.439.177-.775.494-.336.318-.55.766-.215.448-.252.989zm11.853 5.899q-.709 0-1.325-.234-.616-.233-1.064-.653-.448-.42-.7-.98-.252-.56-.252-1.232 0-.691.308-1.279t.858-.998q.551-.411 1.316-.644.766-.234 1.68-.234.654 0 1.279.112.625.112 1.111.318v-.56q0-.971-.551-1.494-.551-.522-1.633-.522-.784 0-1.531.28-.747.28-1.531.821l-.765-1.587q1.885-1.25 4.069-1.25 2.11 0 3.276 1.036 1.167 1.036 1.167 2.996v3.042q0 .392.14.56.14.168.457.187v2.128q-.634.131-1.101.131-.709 0-1.092-.318-.383-.317-.476-.84l-.056-.541q-.653.859-1.587 1.307-.933.448-1.997.448zm.709-1.83q.635 0 1.204-.224.57-.224.887-.597.411-.317.411-.709v-1.12q-.448-.168-.971-.271-.523-.103-1.008-.103-.971 0-1.587.439t-.616 1.111q0 .634.486 1.054.485.42 1.194.42zm11.032 1.83q-1.232 0-2.408-.392t-2.016-1.12l.934-1.568q.896.634 1.745.961.849.327 1.689.327.747 0 1.176-.28.43-.28.43-.803t-.504-.765q-.504-.243-1.643-.56-.952-.262-1.624-.504-.672-.243-1.083-.551-.41-.308-.597-.709-.187-.402-.187-.962 0-.746.29-1.344.289-.597.812-1.017.522-.42 1.222-.644.7-.224 1.522-.224 1.101 0 2.062.317.962.318 1.764 1.027l-1.008 1.512q-.746-.56-1.446-.821-.7-.262-1.391-.262-.635 0-1.064.262-.429.261-.429.84 0 .261.102.429.103.168.327.299.224.13.588.252.364.121.905.252 1.008.261 1.727.522.719.262 1.176.598.457.336.672.774.215.439.215 1.055 0 1.437-1.064 2.268-1.064.831-2.894.831zm8.083-.187h-2.501v-9.781h2.501v9.781zm0-11.144h-2.501v-2.483h2.501v2.483zm6.795 11.331q-1.176 0-2.128-.402-.952-.401-1.624-1.092-.672-.69-1.036-1.605t-.364-1.923q0-1.045.354-1.969.355-.924 1.027-1.624.672-.7 1.633-1.111.962-.41 2.156-.41 1.195 0 2.138.41.942.411 1.605 1.102.663.69 1.008 1.605t.345 1.904q0 .243-.009.467-.009.224-.047.373h-7.56q.056.579.28 1.027.224.448.579.765t.803.485q.448.168.933.168.747 0 1.409-.364.663-.364.906-.961l2.146.597q-.541 1.12-1.726 1.839-1.186.719-2.828.719zm-2.539-5.899h5.077q-.093-1.101-.812-1.764-.718-.663-1.745-.663-.504 0-.943.178-.438.177-.774.494-.336.318-.551.766-.215.448-.252.989zm15.008-4.181v2.277q-1.139.019-2.035.439-.896.42-1.288 1.26v5.917h-2.501v-9.781h2.296v2.09q.261-.504.616-.905t.765-.7q.411-.299.831-.457.42-.159.812-.159h.308q.103 0 .196.019zm3.397 9.893h-2.053v-2.688h2.053v2.688zm-89.6-2.259v-11.368h2.502v10.491q0 .541.261.84.261.299.747.299.224 0 .494-.075.271-.075.514-.187l.336 1.904q-.504.243-1.176.374-.672.13-1.214.13-1.176 0-1.82-.625-.644-.625-.644-1.783zm8.438 2.259h-2.502v-9.781h2.502v9.781zm0-11.144h-2.502v-2.483h2.502v2.483zm5.357 11.144h-2.501v-7.355h-1.288v-1.904h1.288v-.597q0-1.829.877-2.893.877-1.064 2.389-1.064 1.195 0 2.408.578l-.504 1.886q-.28-.15-.662-.252-.383-.103-.7-.103-1.307 0-1.307 1.755v.69h2.389v1.904h-2.389v7.355zm8.344.187q-1.176 0-2.128-.402-.952-.401-1.624-1.092-.672-.69-1.036-1.605t-.364-1.923q0-1.045.355-1.969.354-.924 1.026-1.624.672-.7 1.634-1.111.961-.41 2.156-.41 1.194 0 2.137.41.943.411 1.605 1.102.663.69 1.008 1.605.346.915.346 1.904 0 .243-.01.467-.009.224-.046.373h-7.56q.056.579.28 1.027.224.448.578.765.355.317.803.485.448.168.933.168.747 0 1.41-.364.662-.364.905-.961l2.147.597q-.542 1.12-1.727 1.839-1.185.719-2.828.719zm-2.539-5.899h5.078q-.094-1.101-.812-1.764-.719-.663-1.746-.663-.504 0-.942.178-.439.177-.775.494-.336.318-.551.766-.214.448-.252.989zm-64.194 9.781v-2.165q.317.093.616.14.298.047.504.047.242 0 .448-.094.205-.093.373-.326.168-.234.336-.644.168-.411.355-1.027l-3.864-9.781h2.576l2.65 7.616 2.352-7.616h2.352l-4.106 11.722q-.355 1.027-1.214 1.68-.858.654-2.128.654-.298 0-.606-.047t-.644-.159zm14.578-3.882q-1.194 0-2.146-.411t-1.615-1.111q-.663-.7-1.017-1.614-.355-.915-.355-1.923 0-1.027.355-1.941.354-.915 1.017-1.615.663-.7 1.615-1.111.952-.41 2.146-.41 1.195 0 2.138.41.942.411 1.605 1.111t1.017 1.615q.355.914.355 1.941 0 1.008-.355 1.923-.354.914-1.008 1.614-.653.7-1.605 1.111-.952.411-2.147.411zm-2.557-5.059q0 .653.196 1.185t.541.924q.346.392.812.607.467.215 1.008.215.542 0 1.008-.215.467-.215.812-.607.346-.392.542-.933.196-.541.196-1.195 0-.634-.196-1.176-.196-.541-.542-.933-.345-.392-.812-.607-.466-.214-1.008-.214-.541 0-1.008.224-.466.224-.812.616-.345.392-.541.933-.196.541-.196 1.176zm12.339 5.059q-1.512 0-2.296-.971-.784-.971-.784-2.875v-6.122h2.501v5.581q0 2.259 1.624 2.259.728 0 1.409-.439.682-.439 1.111-1.335v-6.066h2.501v6.906q0 .392.14.56.14.168.458.187v2.128q-.374.075-.626.093-.252.019-.457.019-.672 0-1.092-.308-.42-.308-.495-.849l-.056-.784q-.653 1.008-1.68 1.512-1.026.504-2.258.504zm14.373-10.08v2.277q-1.139.019-2.035.439-.896.42-1.288 1.26v5.917h-2.501v-9.781h2.296v2.09q.261-.504.616-.905t.765-.7q.411-.299.831-.457.42-.159.812-.159h.308q.103 0 .196.019zm-77.915 3.789v6.104h-2.501v-5.488q0-1.176-.401-1.717-.402-.542-1.111-.542-.747 0-1.4.57-.653.569-.933 1.484v5.693h-2.502v-5.488q0-1.176-.401-1.717-.401-.542-1.111-.542-.728 0-1.39.56-.663.56-.943 1.475v5.712h-2.501v-9.781h2.258v1.81q.542-.952 1.484-1.465.943-.513 2.156-.513 1.232 0 1.904.597.672.597.859 1.475.597-1.008 1.512-1.54t2.091-.532q.896 0 1.474.336.579.336.896.877.318.541.439 1.232t.121 1.4zm4.854 6.291q-.71 0-1.326-.234-.616-.233-1.064-.653-.448-.42-.7-.98-.252-.56-.252-1.232 0-.691.308-1.279t.859-.998q.551-.411 1.316-.644.765-.234 1.68-.234.653 0 1.279.112.625.112 1.11.318v-.56q0-.971-.55-1.494-.551-.522-1.634-.522-.784 0-1.53.28-.747.28-1.531.821l-.765-1.587q1.885-1.25 4.069-1.25 2.109 0 3.276 1.036 1.167 1.036 1.167 2.996v3.042q0 .392.14.56.14.168.457.187v2.128q-.635.131-1.101.131-.71 0-1.092-.318-.383-.317-.476-.84l-.056-.541q-.654.859-1.587 1.307-.933.448-1.997.448zm.709-1.83q.635 0 1.204-.224t.887-.597q.41-.317.41-.709v-1.12q-.448-.168-.97-.271-.523-.103-1.008-.103-.971 0-1.587.439t-.616 1.111q0 .634.485 1.054.486.42 1.195.42zm16.688 1.643h-2.669l-2.838-4.237-1.344 1.325v2.912h-2.501v-13.627h2.501v8.27l3.92-4.406h2.67l-3.64 4.144 3.901 5.619zm5.6.187q-1.176 0-2.128-.402-.952-.401-1.624-1.092-.672-.69-1.036-1.605t-.364-1.923q0-1.045.355-1.969.354-.924 1.026-1.624.672-.7 1.634-1.111.961-.41 2.156-.41 1.194 0 2.137.41.943.411 1.605 1.102.663.69 1.008 1.605.346.915.346 1.904 0 .243-.01.467-.009.224-.046.373h-7.56q.056.579.28 1.027.224.448.578.765.355.317.803.485.448.168.933.168.747 0 1.41-.364.662-.364.905-.961l2.147.597q-.542 1.12-1.727 1.839-1.185.719-2.828.719zm-2.539-5.899h5.078q-.094-1.101-.812-1.764-.719-.663-1.746-.663-.504 0-.942.178-.439.177-.775.494-.336.318-.551.766-.214.448-.252.989zm-89.618 5.712h-2.054v-2.688h2.054v2.688zm4.2 0h-2.054v-2.688h2.054v2.688zm4.2 0h-2.054v-2.688h2.054v2.688zm4.872.187q-.71 0-1.326-.234-.616-.233-1.064-.653-.448-.42-.7-.98-.252-.56-.252-1.232 0-.691.308-1.279t.859-.998q.551-.411 1.316-.644.765-.234 1.68-.234.653 0 1.279.112.625.112 1.11.318v-.56q0-.971-.55-1.494-.551-.522-1.634-.522-.784 0-1.53.28-.747.28-1.531.821l-.765-1.587q1.885-1.25 4.069-1.25 2.109 0 3.276 1.036 1.167 1.036 1.167 2.996v3.042q0 .392.14.56.14.168.457.187v2.128q-.635.131-1.101.131-.71 0-1.092-.318-.383-.317-.476-.84l-.056-.541q-.654.859-1.587 1.307-.933.448-1.997.448zm.709-1.83q.635 0 1.204-.224t.887-.597q.41-.317.41-.709v-1.12q-.448-.168-.97-.271-.523-.103-1.008-.103-.971 0-1.587.439t-.616 1.111q0 .634.485 1.054.486.42 1.195.42zm16.427-4.461v6.104h-2.502v-5.488q0-1.176-.41-1.717-.411-.542-1.139-.542-.373 0-.765.15-.392.149-.738.42-.345.27-.625.644-.28.373-.411.821v5.712H62.7v-9.781h2.259v1.81q.541-.933 1.568-1.456 1.026-.522 2.314-.522.915 0 1.494.336.578.336.896.877.317.541.438 1.232.122.691.122 1.4zm6.234 6.291q-1.008 0-1.866-.392-.859-.392-1.475-1.083-.616-.691-.961-1.615-.346-.924-.346-1.988t.327-1.978q.327-.915.905-1.606.579-.69 1.382-1.082.802-.392 1.754-.392 1.083 0 1.951.522.868.523 1.353 1.363v-5.563h2.502v10.752q0 .392.13.56.131.168.448.187v2.128q-.653.131-1.064.131-.672 0-1.101-.336-.429-.336-.485-.878l-.056-.616q-.542.934-1.466 1.41-.924.476-1.932.476zm.654-2.128q.354 0 .728-.122.373-.121.69-.345.318-.224.57-.523.252-.298.382-.653v-2.333q-.149-.411-.42-.756-.27-.346-.616-.598-.345-.252-.728-.401-.382-.149-.756-.149-.56 0-1.036.242-.476.243-.812.663-.336.42-.522.961-.187.542-.187 1.12 0 .616.205 1.139.206.523.56.915.355.392.85.616.494.224 1.092.224z"/>
  <path fill="#404040" d="M141.703 203.707c.223 0 .466-.056.671-.168l14.036-7.176c3.522 2.404 6.729 3.43 9.17 3.43.821 0 1.547-.112 2.181-.336 1.678-.596 3.989-2.591 5.48-4.119 3.001-3.095 3.262-4.735 3.15-5.518.168-1.249-.074-2.982-1.174-5.331a29.598 29.598 0 0 0-.876-1.696c1.901-4.474 4.362-8.183 7.158-10.83 1.305.597 2.572.914 3.672.914a4.75 4.75 0 0 0 1.566-.243c1.137-.41 2.646-1.677 3.672-2.74 1.882-1.938 2.218-3.113 2.162-3.858.317-2.684-2.181-6.58-5.201-9.6-1.938-1.938-4.063-3.504-5.983-4.399-1.976-.932-3.355-.969-4.287-.652-2.274.596-5.592 4.902-6.04 6.151-.484 1.342-.242 3.02.634 4.846-2.647 2.74-6.3 5.164-10.68 7.065-2.983-1.734-5.816-2.591-7.866-1.939-1.342.28-3.113 1.622-5.294 3.952-1.547 1.678-3.318 3.933-3.784 5.238-.988 2.777.28 6.691 3.411 10.96l-7.12 13.868a1.475 1.475 0 0 0 .279 1.734c.28.298.671.447 1.063.447zM178.05 154.2c.671-.206 3.598.745 7.195 4.343 3.598 3.597 4.549 6.524 4.343 7.195-.671.205-3.597-.746-7.195-4.344-3.616-3.597-4.548-6.523-4.343-7.194zm-4.212 4.324c.168-.429.82-1.286 1.584-2.144.112.355.261.727.466 1.137.895 1.92 2.461 4.045 4.399 5.984 2.237 2.237 4.977 4.212 7.344 4.939-.727.671-1.454 1.231-1.882 1.38-.914.317-3.989-.243-7.755-4.008-3.951-3.914-4.436-6.487-4.156-7.288zm-.541 6.468a26.948 26.948 0 0 0 2.554 2.926c.969.97 1.957 1.808 2.964 2.498-3.542 3.616-6.524 8.686-8.575 14.744a30.313 30.313 0 0 1-11.631-11.631c6.077-2.069 11.109-4.995 14.688-8.537zm-19.609 5.517c.168-.167.485-.261.913-.261.634 0 1.51.187 2.573.616a5.771 5.771 0 0 0-.541.186l-.634.205c-.41.13-.745.429-.913.839-.168.391-.168.857.037 1.23a33.439 33.439 0 0 0 15.341 15.341c.205.093.429.149.652.149a1.54 1.54 0 0 0 1.436-1.063c.111-.373.223-.745.354-1.1.708 1.809.671 3.001.298 3.356-.969.969-6.3-.578-12.619-6.878-6.319-6.319-7.866-11.65-6.897-12.62zm-6.822 7.177c.186-.522 1.305-2.218 3.131-4.176.205-.223.411-.447.616-.633.708 3.69 3.914 8.425 7.866 12.376 4.063 4.064 8.984 7.363 12.712 7.922-1.473 1.529-3.318 3.095-4.436 3.486-1.902.671-7.158-.503-13.179-6.524-5.666-5.704-7.456-10.364-6.71-12.451zm2.665 12.488a39.414 39.414 0 0 0 4.25 4.194l-8.649 4.437 4.399-8.631z"/>
  <path fill="#FFF" d="M166.755 196.642c1.118-.391 2.963-1.957 4.436-3.485-3.728-.578-8.649-3.859-12.712-7.922-3.952-3.952-7.158-8.686-7.866-12.377-.205.205-.392.41-.616.634-1.808 1.976-2.945 3.653-3.131 4.175-.746 2.106 1.044 6.766 6.71 12.433 6.021 6.039 11.277 7.213 13.179 6.542zm6.43-6.635c.373-.373.392-1.547-.298-3.356-.112.373-.242.727-.354 1.1-.13.41-.429.764-.839.932a1.62 1.62 0 0 1-.596.131c-.224 0-.448-.056-.653-.149a33.428 33.428 0 0 1-15.34-15.341 1.492 1.492 0 0 1-.038-1.23c.168-.392.504-.709.914-.839l.634-.205c.186-.056.354-.112.54-.186-1.062-.429-1.938-.616-2.572-.616-.429 0-.746.094-.914.261-.969.97.578 6.301 6.879 12.62 6.337 6.3 11.668 7.847 12.637 6.878zm-2.945-4.828c2.051-6.058 5.033-11.128 8.575-14.744a23.927 23.927 0 0 1-2.964-2.498 27.139 27.139 0 0 1-2.554-2.926c-3.579 3.523-8.611 6.468-14.688 8.537a30.443 30.443 0 0 0 11.631 11.631zm15.49-15.359c.429-.149 1.174-.727 1.883-1.38-2.368-.727-5.089-2.684-7.344-4.939-1.939-1.939-3.505-4.064-4.399-5.984a15.76 15.76 0 0 1-.466-1.137c-.746.839-1.417 1.715-1.585 2.144-.279.801.205 3.374 4.12 7.288 3.783 3.765 6.878 4.325 7.791 4.008zm3.858-4.082c.206-.671-.745-3.598-4.343-7.195-3.597-3.598-6.524-4.549-7.195-4.343-.205.671.746 3.597 4.343 7.194 3.598 3.598 6.524 4.549 7.195 4.344z"/>
</svg>
