<?xml version="1.0" standalone="no"?><!-- Generator: Gravit.io --><svg xmlns="http://www.w3.org/2000/svg" xmlns:xlink="http://www.w3.org/1999/xlink" style="isolation:isolate" viewBox="80 185 160 189.826" width="160" height="189.826"><g><path d=" M 89.697 185 C 84.364 185 80 189.364 80 194.697 L 80 315.909 L 206 315.909 L 240 315.909 L 240 194.697 C 240 189.364 235.636 185 230.303 185 L 89.697 185 Z  M 89.697 189.848 L 230.303 189.848 C 233.011 189.848 235.152 191.989 235.152 194.697 L 235.152 311.061 L 84.848 311.061 L 84.848 194.697 C 84.848 191.989 86.989 189.848 89.697 189.848 Z  M 84.848 211.667 C 84.848 213 85.939 214.091 87.273 214.091 C 88.606 214.091 89.697 213 89.697 211.667 C 89.697 210.333 88.606 209.242 87.273 209.242 C 85.939 209.242 84.848 210.333 84.848 211.667 Z  M 235.152 211.667 C 235.152 210.333 234.061 209.242 232.727 209.242 C 231.394 209.242 230.303 210.333 230.303 211.667 C 230.303 213 231.394 214.091 232.727 214.091 C 234.061 214.091 235.152 213 235.152 211.667 Z  M 96.97 209.242 C 95.636 209.242 94.545 210.333 94.545 211.667 C 94.545 213 95.636 214.091 96.97 214.091 C 98.303 214.091 99.394 213 99.394 211.667 C 99.394 210.333 98.303 209.242 96.97 209.242 Z  M 106.667 209.242 C 105.333 209.242 104.242 210.333 104.242 211.667 C 104.242 213 105.333 214.091 106.667 214.091 C 108 214.091 109.091 213 109.091 211.667 C 109.091 210.333 108 209.242 106.667 209.242 Z  M 116.364 209.242 C 115.03 209.242 113.939 210.333 113.939 211.667 C 113.939 213 115.03 214.091 116.364 214.091 C 117.697 214.091 118.788 213 118.788 211.667 C 118.788 210.333 117.697 209.242 116.364 209.242 Z  M 126.061 209.242 C 124.727 209.242 123.636 210.333 123.636 211.667 C 123.636 213 124.727 214.091 126.061 214.091 C 127.394 214.091 128.485 213 128.485 211.667 C 128.485 210.333 127.394 209.242 126.061 209.242 Z  M 135.758 209.242 C 134.424 209.242 133.333 210.333 133.333 211.667 C 133.333 213 134.424 214.091 135.758 214.091 C 137.091 214.091 138.182 213 138.182 211.667 C 138.182 210.333 137.091 209.242 135.758 209.242 Z  M 145.455 209.242 C 144.121 209.242 143.03 210.333 143.03 211.667 C 143.03 213 144.121 214.091 145.455 214.091 C 146.788 214.091 147.879 213 147.879 211.667 C 147.879 210.333 146.788 209.242 145.455 209.242 Z  M 155.152 209.242 C 153.818 209.242 152.727 210.333 152.727 211.667 C 152.727 213 153.818 214.091 155.152 214.091 C 156.485 214.091 157.576 213 157.576 211.667 C 157.576 210.333 156.485 209.242 155.152 209.242 Z  M 164.848 209.242 C 163.515 209.242 162.424 210.333 162.424 211.667 C 162.424 213 163.515 214.091 164.848 214.091 C 166.182 214.091 167.273 213 167.273 211.667 C 167.273 210.333 166.182 209.242 164.848 209.242 Z  M 174.545 209.242 C 173.212 209.242 172.121 210.333 172.121 211.667 C 172.121 213 173.212 214.091 174.545 214.091 C 175.879 214.091 176.97 213 176.97 211.667 C 176.97 210.333 175.879 209.242 174.545 209.242 Z  M 184.242 209.242 C 182.909 209.242 181.818 210.333 181.818 211.667 C 181.818 213 182.909 214.091 184.242 214.091 C 185.576 214.091 186.667 213 186.667 211.667 C 186.667 210.333 185.576 209.242 184.242 209.242 Z  M 193.939 209.242 C 192.606 209.242 191.515 210.333 191.515 211.667 C 191.515 213 192.606 214.091 193.939 214.091 C 195.273 214.091 196.364 213 196.364 211.667 C 196.364 210.333 195.273 209.242 193.939 209.242 Z  M 203.636 209.242 C 202.303 209.242 201.212 210.333 201.212 211.667 C 201.212 213 202.303 214.091 203.636 214.091 C 204.97 214.091 206.061 213 206.061 211.667 C 206.061 210.333 204.97 209.242 203.636 209.242 Z  M 213.333 209.242 C 212 209.242 210.909 210.333 210.909 211.667 C 210.909 213 212 214.091 213.333 214.091 C 214.667 214.091 215.758 213 215.758 211.667 C 215.758 210.333 214.667 209.242 213.333 209.242 Z  M 223.03 209.242 C 221.697 209.242 220.606 210.333 220.606 211.667 C 220.606 213 221.697 214.091 223.03 214.091 C 224.364 214.091 225.455 213 225.455 211.667 C 225.455 210.333 224.364 209.242 223.03 209.242 Z  M 113.939 228.636 L 113.939 233.485 L 203.636 233.485 L 203.636 228.636 L 113.939 228.636 Z  M 118.788 245.606 C 116.11 245.606 113.939 247.777 113.939 250.455 C 113.939 253.132 116.11 255.303 118.788 255.303 C 121.466 255.303 123.636 253.132 123.636 250.455 C 123.636 247.777 121.466 245.606 118.788 245.606 Z  M 130.909 248.03 L 130.909 252.879 L 203.636 252.879 L 203.636 248.03 L 130.909 248.03 Z  M 118.788 265 C 116.11 265 113.939 267.171 113.939 269.848 C 113.939 272.526 116.11 274.697 118.788 274.697 C 121.466 274.697 123.636 272.526 123.636 269.848 C 123.636 267.171 121.466 265 118.788 265 Z  M 130.909 267.424 L 130.909 272.273 L 203.636 272.273 L 203.636 267.424 L 130.909 267.424 Z  M 118.788 284.394 C 116.11 284.394 113.939 286.565 113.939 289.242 C 113.939 291.92 116.11 294.091 118.788 294.091 C 121.466 294.091 123.636 291.92 123.636 289.242 C 123.636 286.565 121.466 284.394 118.788 284.394 Z  M 130.909 286.818 L 130.909 291.667 L 203.636 291.667 L 203.636 286.818 L 130.909 286.818 Z " fill="rgb(64,64,64)"/><path d=" M 181.18 369.45 L 179.212 369.45 L 179.212 359.394 L 177.628 359.394 L 177.628 357.906 L 179.212 357.786 L 179.212 355.938 L 179.212 355.938 Q 179.212 354.138 180.04 353.106 L 180.04 353.106 L 180.04 353.106 Q 180.868 352.074 182.62 352.074 L 182.62 352.074 L 182.62 352.074 Q 183.172 352.074 183.664 352.182 L 183.664 352.182 L 183.664 352.182 Q 184.156 352.29 184.564 352.458 L 184.564 352.458 L 184.132 353.97 L 184.132 353.97 Q 183.484 353.682 182.812 353.682 L 182.812 353.682 L 182.812 353.682 Q 181.18 353.682 181.18 355.938 L 181.18 355.938 L 181.18 357.786 L 183.652 357.786 L 183.652 359.394 L 181.18 359.394 L 181.18 369.45 Z  M 190.42 369.738 L 190.42 369.738 L 190.42 369.738 Q 189.34 369.738 188.368 369.33 L 188.368 369.33 L 188.368 369.33 Q 187.396 368.922 186.652 368.142 L 186.652 368.142 L 186.652 368.142 Q 185.908 367.362 185.464 366.222 L 185.464 366.222 L 185.464 366.222 Q 185.02 365.082 185.02 363.642 L 185.02 363.642 L 185.02 363.642 Q 185.02 362.178 185.464 361.038 L 185.464 361.038 L 185.464 361.038 Q 185.908 359.898 186.652 359.106 L 186.652 359.106 L 186.652 359.106 Q 187.396 358.314 188.368 357.906 L 188.368 357.906 L 188.368 357.906 Q 189.34 357.498 190.42 357.498 L 190.42 357.498 L 190.42 357.498 Q 191.5 357.498 192.472 357.906 L 192.472 357.906 L 192.472 357.906 Q 193.444 358.314 194.188 359.106 L 194.188 359.106 L 194.188 359.106 Q 194.932 359.898 195.376 361.038 L 195.376 361.038 L 195.376 361.038 Q 195.82 362.178 195.82 363.642 L 195.82 363.642 L 195.82 363.642 Q 195.82 365.082 195.376 366.222 L 195.376 366.222 L 195.376 366.222 Q 194.932 367.362 194.188 368.142 L 194.188 368.142 L 194.188 368.142 Q 193.444 368.922 192.472 369.33 L 192.472 369.33 L 192.472 369.33 Q 191.5 369.738 190.42 369.738 Z  M 190.42 368.106 L 190.42 368.106 L 190.42 368.106 Q 191.164 368.106 191.788 367.782 L 191.788 367.782 L 191.788 367.782 Q 192.412 367.458 192.856 366.87 L 192.856 366.87 L 192.856 366.87 Q 193.3 366.282 193.54 365.466 L 193.54 365.466 L 193.54 365.466 Q 193.78 364.65 193.78 363.642 L 193.78 363.642 L 193.78 363.642 Q 193.78 362.634 193.54 361.806 L 193.54 361.806 L 193.54 361.806 Q 193.3 360.978 192.856 360.378 L 192.856 360.378 L 192.856 360.378 Q 192.412 359.778 191.788 359.454 L 191.788 359.454 L 191.788 359.454 Q 191.164 359.13 190.42 359.13 L 190.42 359.13 L 190.42 359.13 Q 189.676 359.13 189.052 359.454 L 189.052 359.454 L 189.052 359.454 Q 188.428 359.778 187.984 360.378 L 187.984 360.378 L 187.984 360.378 Q 187.54 360.978 187.3 361.806 L 187.3 361.806 L 187.3 361.806 Q 187.06 362.634 187.06 363.642 L 187.06 363.642 L 187.06 363.642 Q 187.06 364.65 187.3 365.466 L 187.3 365.466 L 187.3 365.466 Q 187.54 366.282 187.984 366.87 L 187.984 366.87 L 187.984 366.87 Q 188.428 367.458 189.052 367.782 L 189.052 367.782 L 189.052 367.782 Q 189.676 368.106 190.42 368.106 Z  M 202.3 369.738 L 202.3 369.738 L 202.3 369.738 Q 200.428 369.738 199.576 368.586 L 199.576 368.586 L 199.576 368.586 Q 198.724 367.434 198.724 365.178 L 198.724 365.178 L 198.724 357.786 L 200.716 357.786 L 200.716 364.914 L 200.716 364.914 Q 200.716 366.57 201.232 367.302 L 201.232 367.302 L 201.232 367.302 Q 201.748 368.034 202.9 368.034 L 202.9 368.034 L 202.9 368.034 Q 203.812 368.034 204.508 367.566 L 204.508 367.566 L 204.508 367.566 Q 205.204 367.098 206.044 366.066 L 206.044 366.066 L 206.044 357.786 L 208.012 357.786 L 208.012 369.45 L 206.38 369.45 L 206.212 367.626 L 206.14 367.626 L 206.14 367.626 Q 205.324 368.586 204.424 369.162 L 204.424 369.162 L 204.424 369.162 Q 203.524 369.738 202.3 369.738 Z  M 213.916 369.45 L 211.948 369.45 L 211.948 357.786 L 213.58 357.786 L 213.748 359.466 L 213.82 359.466 L 213.82 359.466 Q 214.66 358.626 215.584 358.062 L 215.584 358.062 L 215.584 358.062 Q 216.508 357.498 217.732 357.498 L 217.732 357.498 L 217.732 357.498 Q 219.58 357.498 220.432 358.65 L 220.432 358.65 L 220.432 358.65 Q 221.284 359.802 221.284 362.058 L 221.284 362.058 L 221.284 369.45 L 219.316 369.45 L 219.316 362.322 L 219.316 362.322 Q 219.316 360.666 218.788 359.934 L 218.788 359.934 L 218.788 359.934 Q 218.26 359.202 217.108 359.202 L 217.108 359.202 L 217.108 359.202 Q 216.196 359.202 215.5 359.658 L 215.5 359.658 L 215.5 359.658 Q 214.804 360.114 213.916 361.002 L 213.916 361.002 L 213.916 369.45 Z  M 229.06 369.738 L 229.06 369.738 L 229.06 369.738 Q 226.852 369.738 225.544 368.154 L 225.544 368.154 L 225.544 368.154 Q 224.236 366.57 224.236 363.642 L 224.236 363.642 L 224.236 363.642 Q 224.236 362.226 224.656 361.086 L 224.656 361.086 L 224.656 361.086 Q 225.076 359.946 225.772 359.154 L 225.772 359.154 L 225.772 359.154 Q 226.468 358.362 227.38 357.93 L 227.38 357.93 L 227.38 357.93 Q 228.292 357.498 229.3 357.498 L 229.3 357.498 L 229.3 357.498 Q 230.308 357.498 231.052 357.858 L 231.052 357.858 L 231.052 357.858 Q 231.796 358.218 232.564 358.842 L 232.564 358.842 L 232.468 356.85 L 232.468 352.362 L 234.46 352.362 L 234.46 369.45 L 232.828 369.45 L 232.66 368.082 L 232.588 368.082 L 232.588 368.082 Q 231.892 368.754 230.992 369.246 L 230.992 369.246 L 230.992 369.246 Q 230.092 369.738 229.06 369.738 Z  M 229.492 368.082 L 229.492 368.082 L 229.492 368.082 Q 230.308 368.082 231.028 367.686 L 231.028 367.686 L 231.028 367.686 Q 231.748 367.29 232.468 366.474 L 232.468 366.474 L 232.468 360.378 L 232.468 360.378 Q 231.724 359.706 231.04 359.43 L 231.04 359.43 L 231.04 359.43 Q 230.356 359.154 229.636 359.154 L 229.636 359.154 L 229.636 359.154 Q 228.94 359.154 228.328 359.478 L 228.328 359.478 L 228.328 359.478 Q 227.716 359.802 227.26 360.39 L 227.26 360.39 L 227.26 360.39 Q 226.804 360.978 226.54 361.794 L 226.54 361.794 L 226.54 361.794 Q 226.276 362.61 226.276 363.618 L 226.276 363.618 L 226.276 363.618 Q 226.276 365.73 227.116 366.906 L 227.116 366.906 L 227.116 366.906 Q 227.956 368.082 229.492 368.082 Z  M 141.796 369.45 L 139.828 369.45 L 139.828 357.786 L 141.46 357.786 L 141.628 359.466 L 141.7 359.466 L 141.7 359.466 Q 142.54 358.626 143.464 358.062 L 143.464 358.062 L 143.464 358.062 Q 144.388 357.498 145.612 357.498 L 145.612 357.498 L 145.612 357.498 Q 147.46 357.498 148.312 358.65 L 148.312 358.65 L 148.312 358.65 Q 149.164 359.802 149.164 362.058 L 149.164 362.058 L 149.164 369.45 L 147.196 369.45 L 147.196 362.322 L 147.196 362.322 Q 147.196 360.666 146.668 359.934 L 146.668 359.934 L 146.668 359.934 Q 146.14 359.202 144.988 359.202 L 144.988 359.202 L 144.988 359.202 Q 144.076 359.202 143.38 359.658 L 143.38 359.658 L 143.38 359.658 Q 142.684 360.114 141.796 361.002 L 141.796 361.002 L 141.796 369.45 Z  M 157.492 369.738 L 157.492 369.738 L 157.492 369.738 Q 156.412 369.738 155.44 369.33 L 155.44 369.33 L 155.44 369.33 Q 154.468 368.922 153.724 368.142 L 153.724 368.142 L 153.724 368.142 Q 152.98 367.362 152.536 366.222 L 152.536 366.222 L 152.536 366.222 Q 152.092 365.082 152.092 363.642 L 152.092 363.642 L 152.092 363.642 Q 152.092 362.178 152.536 361.038 L 152.536 361.038 L 152.536 361.038 Q 152.98 359.898 153.724 359.106 L 153.724 359.106 L 153.724 359.106 Q 154.468 358.314 155.44 357.906 L 155.44 357.906 L 155.44 357.906 Q 156.412 357.498 157.492 357.498 L 157.492 357.498 L 157.492 357.498 Q 158.572 357.498 159.544 357.906 L 159.544 357.906 L 159.544 357.906 Q 160.516 358.314 161.26 359.106 L 161.26 359.106 L 161.26 359.106 Q 162.004 359.898 162.448 361.038 L 162.448 361.038 L 162.448 361.038 Q 162.892 362.178 162.892 363.642 L 162.892 363.642 L 162.892 363.642 Q 162.892 365.082 162.448 366.222 L 162.448 366.222 L 162.448 366.222 Q 162.004 367.362 161.26 368.142 L 161.26 368.142 L 161.26 368.142 Q 160.516 368.922 159.544 369.33 L 159.544 369.33 L 159.544 369.33 Q 158.572 369.738 157.492 369.738 Z  M 157.492 368.106 L 157.492 368.106 L 157.492 368.106 Q 158.236 368.106 158.86 367.782 L 158.86 367.782 L 158.86 367.782 Q 159.484 367.458 159.928 366.87 L 159.928 366.87 L 159.928 366.87 Q 160.372 366.282 160.612 365.466 L 160.612 365.466 L 160.612 365.466 Q 160.852 364.65 160.852 363.642 L 160.852 363.642 L 160.852 363.642 Q 160.852 362.634 160.612 361.806 L 160.612 361.806 L 160.612 361.806 Q 160.372 360.978 159.928 360.378 L 159.928 360.378 L 159.928 360.378 Q 159.484 359.778 158.86 359.454 L 158.86 359.454 L 158.86 359.454 Q 158.236 359.13 157.492 359.13 L 157.492 359.13 L 157.492 359.13 Q 156.748 359.13 156.124 359.454 L 156.124 359.454 L 156.124 359.454 Q 155.5 359.778 155.056 360.378 L 155.056 360.378 L 155.056 360.378 Q 154.612 360.978 154.372 361.806 L 154.372 361.806 L 154.372 361.806 Q 154.132 362.634 154.132 363.642 L 154.132 363.642 L 154.132 363.642 Q 154.132 364.65 154.372 365.466 L 154.372 365.466 L 154.372 365.466 Q 154.612 366.282 155.056 366.87 L 155.056 366.87 L 155.056 366.87 Q 155.5 367.458 156.124 367.782 L 156.124 367.782 L 156.124 367.782 Q 156.748 368.106 157.492 368.106 Z  M 169.636 369.738 L 169.636 369.738 L 169.636 369.738 Q 168.7 369.738 168.064 369.45 L 168.064 369.45 L 168.064 369.45 Q 167.428 369.162 167.032 368.658 L 167.032 368.658 L 167.032 368.658 Q 166.636 368.154 166.468 367.434 L 166.468 367.434 L 166.468 367.434 Q 166.3 366.714 166.3 365.85 L 166.3 365.85 L 166.3 359.394 L 164.572 359.394 L 164.572 357.906 L 166.396 357.786 L 166.636 354.522 L 168.292 354.522 L 168.292 357.786 L 171.436 357.786 L 171.436 359.394 L 168.292 359.394 L 168.292 365.874 L 168.292 365.874 Q 168.292 366.954 168.688 367.542 L 168.688 367.542 L 168.688 367.542 Q 169.084 368.13 170.092 368.13 L 170.092 368.13 L 170.092 368.13 Q 170.404 368.13 170.764 368.034 L 170.764 368.034 L 170.764 368.034 Q 171.124 367.938 171.412 367.818 L 171.412 367.818 L 171.796 369.306 L 171.796 369.306 Q 171.316 369.474 170.752 369.606 L 170.752 369.606 L 170.752 369.606 Q 170.188 369.738 169.636 369.738 Z  M 87.532 369.45 L 85.54 369.45 L 85.54 353.706 L 90.028 353.706 L 90.028 353.706 Q 91.348 353.706 92.44 353.946 L 92.44 353.946 L 92.44 353.946 Q 93.532 354.186 94.3 354.726 L 94.3 354.726 L 94.3 354.726 Q 95.068 355.266 95.5 356.154 L 95.5 356.154 L 95.5 356.154 Q 95.932 357.042 95.932 358.338 L 95.932 358.338 L 95.932 358.338 Q 95.932 359.586 95.512 360.498 L 95.512 360.498 L 95.512 360.498 Q 95.092 361.41 94.324 362.01 L 94.324 362.01 L 94.324 362.01 Q 93.556 362.61 92.488 362.91 L 92.488 362.91 L 92.488 362.91 Q 91.42 363.21 90.124 363.21 L 90.124 363.21 L 87.532 363.21 L 87.532 369.45 Z  M 87.532 355.314 L 87.532 361.578 L 89.884 361.578 L 89.884 361.578 Q 91.948 361.578 92.944 360.798 L 92.944 360.798 L 92.944 360.798 Q 93.94 360.018 93.94 358.338 L 93.94 358.338 L 93.94 358.338 Q 93.94 356.634 92.896 355.974 L 92.896 355.974 L 92.896 355.974 Q 91.852 355.314 89.788 355.314 L 89.788 355.314 L 87.532 355.314 Z  M 101.62 369.738 L 101.62 369.738 L 101.62 369.738 Q 100.156 369.738 99.184 368.874 L 99.184 368.874 L 99.184 368.874 Q 98.212 368.01 98.212 366.426 L 98.212 366.426 L 98.212 366.426 Q 98.212 364.506 99.916 363.486 L 99.916 363.486 L 99.916 363.486 Q 101.62 362.466 105.364 362.058 L 105.364 362.058 L 105.364 362.058 Q 105.364 361.506 105.256 360.978 L 105.256 360.978 L 105.256 360.978 Q 105.148 360.45 104.884 360.042 L 104.884 360.042 L 104.884 360.042 Q 104.62 359.634 104.152 359.382 L 104.152 359.382 L 104.152 359.382 Q 103.684 359.13 102.964 359.13 L 102.964 359.13 L 102.964 359.13 Q 101.956 359.13 101.068 359.514 L 101.068 359.514 L 101.068 359.514 Q 100.18 359.898 99.484 360.378 L 99.484 360.378 L 98.716 359.01 L 98.716 359.01 Q 99.532 358.482 100.708 357.99 L 100.708 357.99 L 100.708 357.99 Q 101.884 357.498 103.3 357.498 L 103.3 357.498 L 103.3 357.498 Q 105.436 357.498 106.396 358.806 L 106.396 358.806 L 106.396 358.806 Q 107.356 360.114 107.356 362.298 L 107.356 362.298 L 107.356 369.45 L 105.724 369.45 L 105.556 368.058 L 105.484 368.058 L 105.484 368.058 Q 104.644 368.754 103.684 369.246 L 103.684 369.246 L 103.684 369.246 Q 102.724 369.738 101.62 369.738 Z  M 102.196 368.154 L 102.196 368.154 L 102.196 368.154 Q 103.036 368.154 103.78 367.758 L 103.78 367.758 L 103.78 367.758 Q 104.524 367.362 105.364 366.594 L 105.364 366.594 L 105.364 363.354 L 105.364 363.354 Q 103.9 363.546 102.904 363.81 L 102.904 363.81 L 102.904 363.81 Q 101.908 364.074 101.296 364.434 L 101.296 364.434 L 101.296 364.434 Q 100.684 364.794 100.408 365.262 L 100.408 365.262 L 100.408 365.262 Q 100.132 365.73 100.132 366.282 L 100.132 366.282 L 100.132 366.282 Q 100.132 367.29 100.732 367.722 L 100.732 367.722 L 100.732 367.722 Q 101.332 368.154 102.196 368.154 Z  M 114.964 374.826 L 114.964 374.826 L 114.964 374.826 Q 113.884 374.826 112.996 374.622 L 112.996 374.622 L 112.996 374.622 Q 112.108 374.418 111.472 374.01 L 111.472 374.01 L 111.472 374.01 Q 110.836 373.602 110.488 373.026 L 110.488 373.026 L 110.488 373.026 Q 110.14 372.45 110.14 371.682 L 110.14 371.682 L 110.14 371.682 Q 110.14 370.938 110.596 370.266 L 110.596 370.266 L 110.596 370.266 Q 111.052 369.594 111.844 369.042 L 111.844 369.042 L 111.844 368.946 L 111.844 368.946 Q 111.412 368.682 111.112 368.214 L 111.112 368.214 L 111.112 368.214 Q 110.812 367.746 110.812 367.05 L 110.812 367.05 L 110.812 367.05 Q 110.812 366.306 111.22 365.754 L 111.22 365.754 L 111.22 365.754 Q 111.628 365.202 112.084 364.89 L 112.084 364.89 L 112.084 364.794 L 112.084 364.794 Q 111.508 364.314 111.04 363.51 L 111.04 363.51 L 111.04 363.51 Q 110.572 362.706 110.572 361.65 L 110.572 361.65 L 110.572 361.65 Q 110.572 360.69 110.92 359.922 L 110.92 359.922 L 110.92 359.922 Q 111.268 359.154 111.868 358.614 L 111.868 358.614 L 111.868 358.614 Q 112.468 358.074 113.272 357.786 L 113.272 357.786 L 113.272 357.786 Q 114.076 357.498 114.964 357.498 L 114.964 357.498 L 114.964 357.498 Q 115.444 357.498 115.864 357.582 L 115.864 357.582 L 115.864 357.582 Q 116.284 357.666 116.62 357.786 L 116.62 357.786 L 120.676 357.786 L 120.676 359.298 L 118.276 359.298 L 118.276 359.298 Q 118.684 359.706 118.96 360.33 L 118.96 360.33 L 118.96 360.33 Q 119.236 360.954 119.236 361.698 L 119.236 361.698 L 119.236 361.698 Q 119.236 362.634 118.9 363.39 L 118.9 363.39 L 118.9 363.39 Q 118.564 364.146 117.988 364.662 L 117.988 364.662 L 117.988 364.662 Q 117.412 365.178 116.632 365.466 L 116.632 365.466 L 116.632 365.466 Q 115.852 365.754 114.964 365.754 L 114.964 365.754 L 114.964 365.754 Q 114.532 365.754 114.076 365.646 L 114.076 365.646 L 114.076 365.646 Q 113.62 365.538 113.212 365.346 L 113.212 365.346 L 113.212 365.346 Q 112.9 365.61 112.684 365.934 L 112.684 365.934 L 112.684 365.934 Q 112.468 366.258 112.468 366.738 L 112.468 366.738 L 112.468 366.738 Q 112.468 367.29 112.9 367.65 L 112.9 367.65 L 112.9 367.65 Q 113.332 368.01 114.532 368.01 L 114.532 368.01 L 116.788 368.01 L 116.788 368.01 Q 118.828 368.01 119.848 368.67 L 119.848 368.67 L 119.848 368.67 Q 120.868 369.33 120.868 370.794 L 120.868 370.794 L 120.868 370.794 Q 120.868 371.61 120.46 372.342 L 120.46 372.342 L 120.46 372.342 Q 120.052 373.074 119.284 373.626 L 119.284 373.626 L 119.284 373.626 Q 118.516 374.178 117.424 374.502 L 117.424 374.502 L 117.424 374.502 Q 116.332 374.826 114.964 374.826 Z  M 114.964 364.434 L 114.964 364.434 L 114.964 364.434 Q 115.468 364.434 115.912 364.242 L 115.912 364.242 L 115.912 364.242 Q 116.356 364.05 116.704 363.69 L 116.704 363.69 L 116.704 363.69 Q 117.052 363.33 117.244 362.814 L 117.244 362.814 L 117.244 362.814 Q 117.436 362.298 117.436 361.65 L 117.436 361.65 L 117.436 361.65 Q 117.436 360.354 116.716 359.646 L 116.716 359.646 L 116.716 359.646 Q 115.996 358.938 114.964 358.938 L 114.964 358.938 L 114.964 358.938 Q 113.932 358.938 113.212 359.646 L 113.212 359.646 L 113.212 359.646 Q 112.492 360.354 112.492 361.65 L 112.492 361.65 L 112.492 361.65 Q 112.492 362.298 112.684 362.814 L 112.684 362.814 L 112.684 362.814 Q 112.876 363.33 113.224 363.69 L 113.224 363.69 L 113.224 363.69 Q 113.572 364.05 114.016 364.242 L 114.016 364.242 L 114.016 364.242 Q 114.46 364.434 114.964 364.434 Z  M 115.252 373.458 L 115.252 373.458 L 115.252 373.458 Q 116.092 373.458 116.776 373.254 L 116.776 373.254 L 116.776 373.254 Q 117.46 373.05 117.94 372.726 L 117.94 372.726 L 117.94 372.726 Q 118.42 372.402 118.684 371.97 L 118.684 371.97 L 118.684 371.97 Q 118.948 371.538 118.948 371.082 L 118.948 371.082 L 118.948 371.082 Q 118.948 370.266 118.348 369.954 L 118.348 369.954 L 118.348 369.954 Q 117.748 369.642 116.596 369.642 L 116.596 369.642 L 114.58 369.642 L 114.58 369.642 Q 114.244 369.642 113.848 369.606 L 113.848 369.606 L 113.848 369.606 Q 113.452 369.57 113.068 369.45 L 113.068 369.45 L 113.068 369.45 Q 112.444 369.906 112.156 370.41 L 112.156 370.41 L 112.156 370.41 Q 111.868 370.914 111.868 371.418 L 111.868 371.418 L 111.868 371.418 Q 111.868 372.354 112.768 372.906 L 112.768 372.906 L 112.768 372.906 Q 113.668 373.458 115.252 373.458 Z  M 127.852 369.738 L 127.852 369.738 L 127.852 369.738 Q 126.676 369.738 125.656 369.318 L 125.656 369.318 L 125.656 369.318 Q 124.636 368.898 123.88 368.118 L 123.88 368.118 L 123.88 368.118 Q 123.124 367.338 122.692 366.21 L 122.692 366.21 L 122.692 366.21 Q 122.26 365.082 122.26 363.642 L 122.26 363.642 L 122.26 363.642 Q 122.26 362.202 122.704 361.062 L 122.704 361.062 L 122.704 361.062 Q 123.148 359.922 123.88 359.13 L 123.88 359.13 L 123.88 359.13 Q 124.612 358.338 125.548 357.918 L 125.548 357.918 L 125.548 357.918 Q 126.484 357.498 127.492 357.498 L 127.492 357.498 L 127.492 357.498 Q 128.596 357.498 129.472 357.882 L 129.472 357.882 L 129.472 357.882 Q 130.348 358.266 130.936 358.986 L 130.936 358.986 L 130.936 358.986 Q 131.524 359.706 131.836 360.714 L 131.836 360.714 L 131.836 360.714 Q 132.148 361.722 132.148 362.97 L 132.148 362.97 L 132.148 362.97 Q 132.148 363.282 132.136 363.582 L 132.136 363.582 L 132.136 363.582 Q 132.124 363.882 132.076 364.098 L 132.076 364.098 L 124.204 364.098 L 124.204 364.098 Q 124.324 365.97 125.368 367.062 L 125.368 367.062 L 125.368 367.062 Q 126.412 368.154 128.092 368.154 L 128.092 368.154 L 128.092 368.154 Q 128.932 368.154 129.64 367.902 L 129.64 367.902 L 129.64 367.902 Q 130.348 367.65 130.996 367.242 L 130.996 367.242 L 131.692 368.538 L 131.692 368.538 Q 130.924 369.018 129.988 369.378 L 129.988 369.378 L 129.988 369.378 Q 129.052 369.738 127.852 369.738 Z  M 124.18 362.682 L 124.18 362.682 L 130.42 362.682 L 130.42 362.682 Q 130.42 360.906 129.664 359.982 L 129.664 359.982 L 129.664 359.982 Q 128.908 359.058 127.54 359.058 L 127.54 359.058 L 127.54 359.058 Q 126.916 359.058 126.352 359.298 L 126.352 359.298 L 126.352 359.298 Q 125.788 359.538 125.332 360.006 L 125.332 360.006 L 125.332 360.006 Q 124.876 360.474 124.576 361.146 L 124.576 361.146 L 124.576 361.146 Q 124.276 361.818 124.18 362.682 Z " fill-rule="evenodd" fill="rgb(64,64,64)"/></g></svg>