<?xml version="1.0" standalone="no"?><!-- Generator: Gravit.io --><svg xmlns="http://www.w3.org/2000/svg" xmlns:xlink="http://www.w3.org/1999/xlink" style="isolation:isolate" viewBox="123.5 41.5 35 35" width="35" height="35"><path d=" M 141 41.5 C 131.346 41.5 123.5 49.346 123.5 59 C 123.5 68.654 131.346 76.5 141 76.5 C 150.654 76.5 158.5 68.654 158.5 59 C 158.5 49.346 150.654 41.5 141 41.5 Z  M 141 43.091 C 149.797 43.091 156.909 50.203 156.909 59 C 156.909 67.797 149.797 74.909 141 74.909 C 132.203 74.909 125.091 67.797 125.091 59 C 125.091 50.203 132.203 43.091 141 43.091 Z  M 140.205 58.205 L 136.227 58.205 C 135.94 58.201 135.674 58.352 135.528 58.599 C 135.385 58.847 135.385 59.153 135.528 59.401 C 135.674 59.649 135.942 59.799 136.227 59.795 L 140.205 59.795 L 141.795 59.795 L 145.773 59.795 C 146.059 59.799 146.326 59.649 146.472 59.401 C 146.615 59.153 146.615 58.847 146.472 58.599 C 146.326 58.351 146.058 58.201 145.773 58.205 L 141.795 58.205 L 140.205 58.205 Z " fill="rgb(64,64,64)"/></svg>