<?xml version="1.0" standalone="no"?><!-- Generator: Gravit.io --><svg xmlns="http://www.w3.org/2000/svg" xmlns:xlink="http://www.w3.org/1999/xlink" style="isolation:isolate" viewBox="255 16 32 32" width="28" height="28"><g><path d=" M 277.328 41.149 C 271.462 45.535 263.204 44.644 258.409 39.107 C 253.613 33.57 253.911 25.27 259.09 20.09 C 264.27 14.911 272.57 14.613 278.107 19.409 C 283.644 24.204 284.535 32.462 280.149 38.328 L 287 45.179 L 284.179 48 L 277.328 41.149 Z  M 278.939 29.965 C 278.939 33.528 277.038 36.821 273.952 38.603 C 270.866 40.385 267.064 40.385 263.977 38.603 C 260.891 36.821 258.99 33.528 258.99 29.965 C 258.99 24.456 263.456 19.99 268.965 19.99 C 274.473 19.99 278.939 24.456 278.939 29.965 L 278.939 29.965 Z " fill-rule="evenodd" fill="rgb(64,64,64)"/></g></svg>