<?xml version="1.0" standalone="no"?><!-- Generator: Gravit.io --><svg xmlns="http://www.w3.org/2000/svg" xmlns:xlink="http://www.w3.org/1999/xlink" style="isolation:isolate" viewBox="45.844 159.623 228.312 248.754" width="228.312" height="248.754"><g><path d=" M 238.193 199.462 C 236.096 194.686 229.747 190.434 223.108 186.765 L 223.457 186.939 L 224.214 185.425 L 218.215 182.396 L 217.516 183.794 C 218.157 184.144 218.797 184.493 219.38 184.843 C 217.516 183.794 215.536 182.746 213.614 181.756 L 213.672 181.523 L 211.692 180.824 C 209.537 179.775 207.323 178.902 205.285 178.261 L 204.003 173.893 C 201.557 165.506 192.646 159.623 182.278 159.623 L 137.78 159.623 C 127.412 159.623 118.501 165.506 116.055 173.893 L 114.773 178.261 C 112.677 178.902 110.522 179.775 108.367 180.824 L 106.328 181.523 L 106.386 181.756 C 104.464 182.688 102.542 183.736 100.678 184.784 C 101.261 184.435 101.901 184.144 102.484 183.794 L 101.785 182.396 L 95.786 185.425 L 96.543 186.939 C 96.659 186.881 96.834 186.823 96.951 186.706 C 90.253 190.376 83.904 194.686 81.807 199.404 C 78.604 206.684 79.71 216.527 84.719 225.788 L 85.826 227.885 L 87.981 226.895 C 88.68 226.545 102.484 220.313 111.337 216.003 L 114.016 221.303 C 97.273 235.041 87.569 255.56 87.573 277.218 C 87.573 297.778 96.194 316.358 109.997 329.521 L 102.717 352.003 C 102.367 352.994 102.717 354.1 103.532 354.741 C 103.998 355.09 104.581 355.323 105.105 355.323 C 105.513 355.323 105.979 355.207 106.386 354.974 L 128.228 342.277 C 137.838 346.994 148.613 349.674 160.029 349.674 C 171.445 349.674 182.22 346.994 191.83 342.277 L 213.672 354.974 C 214.08 355.207 214.487 355.323 214.953 355.323 C 215.536 355.323 216.06 355.149 216.526 354.741 C 217.341 354.1 217.691 352.994 217.341 352.003 L 210.003 329.579 C 223.806 316.358 232.427 297.836 232.427 277.276 C 232.427 254.794 222.117 234.641 205.984 221.362 L 208.663 216.062 C 217.516 220.372 231.32 226.604 232.019 226.953 L 234.174 227.943 L 235.281 225.847 C 240.29 216.586 241.396 206.684 238.193 199.462 L 238.193 199.462 Z  M 86.525 201.442 C 88.622 196.666 99.513 191.017 103.125 189.153 C 104.581 188.337 107.318 186.823 110.347 185.425 L 118.85 182.455 L 118.85 182.396 C 119.724 182.222 120.54 182.105 121.297 182.105 C 121.704 182.105 122.112 182.105 122.462 182.222 C 128.111 183.212 133.936 187.871 138.071 194.569 C 132.887 197.831 119.375 206.218 114.074 209.072 C 108.658 211.984 93.805 218.799 88.156 221.362 C 84.894 214.139 84.253 206.684 86.525 201.442 Z  M 113.084 215.246 C 112.735 215.421 112.444 215.596 112.094 215.77 C 112.444 215.596 112.735 215.421 113.084 215.246 Z  M 114.715 214.431 L 113.667 214.955 C 114.074 214.78 114.424 214.605 114.715 214.431 Z  M 115.647 334.53 C 117.86 336.394 120.248 338.025 122.753 339.423 L 122.986 339.539 L 109.59 347.344 L 114.191 333.307 C 114.249 333.365 114.366 333.424 114.424 333.482 L 115.647 334.53 L 115.647 334.53 Z  M 210.527 347.286 L 197.131 339.481 L 197.364 339.364 C 199.868 337.967 202.256 336.336 204.469 334.472 L 205.693 333.424 C 205.751 333.365 205.867 333.307 205.926 333.191 L 210.527 347.286 L 210.527 347.286 Z  M 227.418 277.276 C 227.418 297.021 218.914 314.785 205.343 327.133 L 202.431 329.638 C 199.46 332.026 196.257 334.239 192.879 336.103 L 191.364 336.918 C 181.987 341.869 171.328 344.665 160.029 344.665 C 148.73 344.665 138.071 341.869 128.694 336.918 L 127.179 336.103 C 123.801 334.239 120.598 332.026 117.627 329.638 L 114.773 327.191 C 101.203 314.844 92.641 297.079 92.641 277.334 C 92.641 240.175 122.869 209.946 160.029 209.946 C 197.189 209.946 227.418 240.116 227.418 277.276 L 227.418 277.276 Z  M 163.407 204.937 L 163.407 197.54 L 172.726 197.54 L 172.726 186.008 L 147.39 186.008 L 147.39 197.54 L 156.709 197.54 L 156.709 204.937 C 143.022 205.578 130.325 210.004 119.608 217.226 L 117.453 212.975 C 117.161 213.149 116.812 213.324 116.579 213.441 C 116.171 213.673 115.764 213.848 115.298 214.139 C 115.764 213.906 116.229 213.673 116.579 213.441 C 123.335 209.829 142.148 198.006 142.964 197.482 L 144.944 196.2 L 143.837 194.103 C 138.886 184.784 131.256 178.436 123.452 177.096 C 122.52 176.921 121.53 176.921 120.481 176.98 L 121.006 175.116 C 122.811 168.942 129.859 164.457 137.838 164.457 L 182.337 164.457 C 190.316 164.457 197.422 168.942 199.169 175.116 L 199.693 176.98 C 198.645 176.921 197.655 176.921 196.723 177.096 C 188.918 178.436 181.288 184.843 176.337 194.103 L 175.231 196.2 L 177.211 197.482 C 178.027 198.006 196.839 209.829 203.596 213.441 C 204.003 213.673 204.411 213.906 204.877 214.139 C 204.411 213.906 203.945 213.673 203.596 213.441 C 203.305 213.266 203.013 213.149 202.664 212.975 L 200.509 217.226 C 189.51 209.79 176.671 205.537 163.407 204.937 L 163.407 204.937 Z  M 206.974 215.246 C 207.382 215.421 207.789 215.654 208.197 215.887 C 207.789 215.654 207.382 215.421 206.974 215.246 Z  M 205.343 214.431 C 205.693 214.605 206.042 214.78 206.45 215.013 C 206.1 214.78 205.693 214.605 205.343 214.431 Z  M 231.902 221.303 C 226.253 218.741 211.4 211.926 205.984 209.014 C 200.684 206.16 187.171 197.773 181.987 194.511 C 186.123 187.813 192.005 183.095 197.597 182.163 C 198.587 181.989 199.868 182.105 201.208 182.338 L 201.208 182.396 L 209.77 185.425 C 212.798 186.823 215.536 188.337 216.992 189.153 C 220.545 191.017 231.436 196.608 233.533 201.384 C 235.863 206.684 235.222 214.139 231.902 221.303 L 231.902 221.303 Z  M 98.814 277.276 C 98.814 311.058 126.306 338.491 160.029 338.491 C 193.811 338.491 221.244 311 221.244 277.276 C 221.244 243.495 193.753 216.062 160.029 216.062 C 126.306 216.062 98.814 243.495 98.814 277.276 L 98.814 277.276 Z  M 217.924 277.276 C 217.924 309.194 191.947 335.171 160.029 335.171 C 128.111 335.171 102.134 309.194 102.134 277.276 C 102.134 245.358 128.111 219.44 160.029 219.44 C 191.947 219.44 217.924 245.358 217.924 277.276 L 217.924 277.276 Z  M 158.34 221.595 L 161.718 221.595 L 161.718 230.098 L 158.34 230.098 L 158.34 221.595 Z  M 158.34 323.231 L 161.718 323.231 L 161.718 331.734 L 158.34 331.734 L 158.34 323.231 Z  M 206.624 275.005 L 215.128 275.005 L 215.128 278.383 L 206.624 278.383 L 206.624 275.005 Z  M 104.988 275.005 L 113.492 275.005 L 113.492 278.383 L 104.988 278.383 L 104.988 275.005 Z  M 157.466 246.873 L 157.466 271.626 C 156.069 272.85 155.137 274.597 155.137 276.635 C 155.137 276.985 155.195 277.334 155.253 277.684 L 129.567 309.485 C 129.276 309.835 129.16 310.301 129.218 310.708 C 129.276 311.174 129.509 311.582 129.859 311.815 L 133.877 315.077 C 134.18 315.303 134.548 315.426 134.926 315.426 C 135.392 315.426 135.916 315.193 136.265 314.785 L 161.776 283.217 C 164.98 283.217 167.659 280.946 168.242 277.917 L 208.547 265.86 L 207.556 262.657 L 167.95 274.539 C 167.543 273.432 166.902 272.442 166.028 271.685 L 166.028 246.931 C 166.028 245.999 165.271 245.242 164.339 245.242 L 159.155 245.242 C 158.224 245.184 157.466 245.941 157.466 246.873 L 157.466 246.873 Z  M 134.693 311.407 L 133.295 310.242 L 156.884 281.004 C 157.292 281.47 157.758 281.819 158.282 282.169 L 134.693 311.407 L 134.693 311.407 Z  M 162.65 248.562 L 162.65 270.112 C 162.359 270.054 162.068 269.996 161.718 269.996 C 161.427 269.996 161.136 270.054 160.845 270.112 L 160.845 248.562 L 162.65 248.562 Z " fill="rgb(64,64,64)"/><path d=" M 176.092 408.089 L 174.124 408.089 L 174.124 396.425 L 175.756 396.425 L 175.924 398.537 L 175.996 398.537 L 175.996 398.537 Q 176.596 397.433 177.448 396.785 L 177.448 396.785 L 177.448 396.785 Q 178.3 396.137 179.308 396.137 L 179.308 396.137 L 179.308 396.137 Q 180.004 396.137 180.556 396.377 L 180.556 396.377 L 180.172 398.105 L 180.172 398.105 Q 179.884 398.009 179.644 397.961 L 179.644 397.961 L 179.644 397.961 Q 179.404 397.913 179.044 397.913 L 179.044 397.913 L 179.044 397.913 Q 178.3 397.913 177.496 398.513 L 177.496 398.513 L 177.496 398.513 Q 176.692 399.113 176.092 400.601 L 176.092 400.601 L 176.092 408.089 Z  M 187.18 408.377 L 187.18 408.377 L 187.18 408.377 Q 186.004 408.377 184.984 407.957 L 184.984 407.957 L 184.984 407.957 Q 183.964 407.537 183.208 406.757 L 183.208 406.757 L 183.208 406.757 Q 182.452 405.977 182.02 404.849 L 182.02 404.849 L 182.02 404.849 Q 181.588 403.721 181.588 402.281 L 181.588 402.281 L 181.588 402.281 Q 181.588 400.841 182.032 399.701 L 182.032 399.701 L 182.032 399.701 Q 182.476 398.561 183.208 397.769 L 183.208 397.769 L 183.208 397.769 Q 183.94 396.977 184.876 396.557 L 184.876 396.557 L 184.876 396.557 Q 185.812 396.137 186.82 396.137 L 186.82 396.137 L 186.82 396.137 Q 187.924 396.137 188.8 396.521 L 188.8 396.521 L 188.8 396.521 Q 189.676 396.905 190.264 397.625 L 190.264 397.625 L 190.264 397.625 Q 190.852 398.345 191.164 399.353 L 191.164 399.353 L 191.164 399.353 Q 191.476 400.361 191.476 401.609 L 191.476 401.609 L 191.476 401.609 Q 191.476 401.921 191.464 402.221 L 191.464 402.221 L 191.464 402.221 Q 191.452 402.521 191.404 402.737 L 191.404 402.737 L 183.532 402.737 L 183.532 402.737 Q 183.652 404.609 184.696 405.701 L 184.696 405.701 L 184.696 405.701 Q 185.74 406.793 187.42 406.793 L 187.42 406.793 L 187.42 406.793 Q 188.26 406.793 188.968 406.541 L 188.968 406.541 L 188.968 406.541 Q 189.676 406.289 190.324 405.881 L 190.324 405.881 L 191.02 407.177 L 191.02 407.177 Q 190.252 407.657 189.316 408.017 L 189.316 408.017 L 189.316 408.017 Q 188.38 408.377 187.18 408.377 Z  M 183.508 401.321 L 183.508 401.321 L 189.748 401.321 L 189.748 401.321 Q 189.748 399.545 188.992 398.621 L 188.992 398.621 L 188.992 398.621 Q 188.236 397.697 186.868 397.697 L 186.868 397.697 L 186.868 397.697 Q 186.244 397.697 185.68 397.937 L 185.68 397.937 L 185.68 397.937 Q 185.116 398.177 184.66 398.645 L 184.66 398.645 L 184.66 398.645 Q 184.204 399.113 183.904 399.785 L 183.904 399.785 L 183.904 399.785 Q 183.604 400.457 183.508 401.321 Z  M 196.324 408.089 L 194.356 408.089 L 194.356 396.425 L 195.988 396.425 L 196.156 398.105 L 196.228 398.105 L 196.228 398.105 Q 196.996 397.265 197.896 396.701 L 197.896 396.701 L 197.896 396.701 Q 198.796 396.137 199.852 396.137 L 199.852 396.137 L 199.852 396.137 Q 201.196 396.137 201.952 396.725 L 201.952 396.725 L 201.952 396.725 Q 202.708 397.313 203.068 398.369 L 203.068 398.369 L 203.068 398.369 Q 203.98 397.361 204.904 396.749 L 204.904 396.749 L 204.904 396.749 Q 205.828 396.137 206.908 396.137 L 206.908 396.137 L 206.908 396.137 Q 208.708 396.137 209.584 397.289 L 209.584 397.289 L 209.584 397.289 Q 210.46 398.441 210.46 400.697 L 210.46 400.697 L 210.46 408.089 L 208.492 408.089 L 208.492 400.961 L 208.492 400.961 Q 208.492 399.305 207.964 398.573 L 207.964 398.573 L 207.964 398.573 Q 207.436 397.841 206.332 397.841 L 206.332 397.841 L 206.332 397.841 Q 205.012 397.841 203.404 399.641 L 203.404 399.641 L 203.404 408.089 L 201.436 408.089 L 201.436 400.961 L 201.436 400.961 Q 201.436 399.305 200.908 398.573 L 200.908 398.573 L 200.908 398.573 Q 200.38 397.841 199.252 397.841 L 199.252 397.841 L 199.252 397.841 Q 197.932 397.841 196.324 399.641 L 196.324 399.641 L 196.324 408.089 Z  M 216.22 408.089 L 214.252 408.089 L 214.252 396.425 L 216.22 396.425 L 216.22 408.089 Z  M 215.26 394.025 L 215.26 394.025 L 215.26 394.025 Q 214.684 394.025 214.288 393.665 L 214.288 393.665 L 214.288 393.665 Q 213.892 393.305 213.892 392.753 L 213.892 392.753 L 213.892 392.753 Q 213.892 392.177 214.288 391.829 L 214.288 391.829 L 214.288 391.829 Q 214.684 391.481 215.26 391.481 L 215.26 391.481 L 215.26 391.481 Q 215.836 391.481 216.232 391.829 L 216.232 391.829 L 216.232 391.829 Q 216.628 392.177 216.628 392.753 L 216.628 392.753 L 216.628 392.753 Q 216.628 393.305 216.232 393.665 L 216.232 393.665 L 216.232 393.665 Q 215.836 394.025 215.26 394.025 Z  M 222.124 408.089 L 220.156 408.089 L 220.156 396.425 L 221.788 396.425 L 221.956 398.105 L 222.028 398.105 L 222.028 398.105 Q 222.868 397.265 223.792 396.701 L 223.792 396.701 L 223.792 396.701 Q 224.716 396.137 225.94 396.137 L 225.94 396.137 L 225.94 396.137 Q 227.788 396.137 228.64 397.289 L 228.64 397.289 L 228.64 397.289 Q 229.492 398.441 229.492 400.697 L 229.492 400.697 L 229.492 408.089 L 227.524 408.089 L 227.524 400.961 L 227.524 400.961 Q 227.524 399.305 226.996 398.573 L 226.996 398.573 L 226.996 398.573 Q 226.468 397.841 225.316 397.841 L 225.316 397.841 L 225.316 397.841 Q 224.404 397.841 223.708 398.297 L 223.708 398.297 L 223.708 398.297 Q 223.012 398.753 222.124 399.641 L 222.124 399.641 L 222.124 408.089 Z  M 237.268 408.377 L 237.268 408.377 L 237.268 408.377 Q 235.06 408.377 233.752 406.793 L 233.752 406.793 L 233.752 406.793 Q 232.444 405.209 232.444 402.281 L 232.444 402.281 L 232.444 402.281 Q 232.444 400.865 232.864 399.725 L 232.864 399.725 L 232.864 399.725 Q 233.284 398.585 233.98 397.793 L 233.98 397.793 L 233.98 397.793 Q 234.676 397.001 235.588 396.569 L 235.588 396.569 L 235.588 396.569 Q 236.5 396.137 237.508 396.137 L 237.508 396.137 L 237.508 396.137 Q 238.516 396.137 239.26 396.497 L 239.26 396.497 L 239.26 396.497 Q 240.004 396.857 240.772 397.481 L 240.772 397.481 L 240.676 395.489 L 240.676 391.001 L 242.668 391.001 L 242.668 408.089 L 241.036 408.089 L 240.868 406.721 L 240.796 406.721 L 240.796 406.721 Q 240.1 407.393 239.2 407.885 L 239.2 407.885 L 239.2 407.885 Q 238.3 408.377 237.268 408.377 Z  M 237.7 406.721 L 237.7 406.721 L 237.7 406.721 Q 238.516 406.721 239.236 406.325 L 239.236 406.325 L 239.236 406.325 Q 239.956 405.929 240.676 405.113 L 240.676 405.113 L 240.676 399.017 L 240.676 399.017 Q 239.932 398.345 239.248 398.069 L 239.248 398.069 L 239.248 398.069 Q 238.564 397.793 237.844 397.793 L 237.844 397.793 L 237.844 397.793 Q 237.148 397.793 236.536 398.117 L 236.536 398.117 L 236.536 398.117 Q 235.924 398.441 235.468 399.029 L 235.468 399.029 L 235.468 399.029 Q 235.012 399.617 234.748 400.433 L 234.748 400.433 L 234.748 400.433 Q 234.484 401.249 234.484 402.257 L 234.484 402.257 L 234.484 402.257 Q 234.484 404.369 235.324 405.545 L 235.324 405.545 L 235.324 405.545 Q 236.164 406.721 237.7 406.721 Z  M 251.332 408.377 L 251.332 408.377 L 251.332 408.377 Q 250.156 408.377 249.136 407.957 L 249.136 407.957 L 249.136 407.957 Q 248.116 407.537 247.36 406.757 L 247.36 406.757 L 247.36 406.757 Q 246.604 405.977 246.172 404.849 L 246.172 404.849 L 246.172 404.849 Q 245.74 403.721 245.74 402.281 L 245.74 402.281 L 245.74 402.281 Q 245.74 400.841 246.184 399.701 L 246.184 399.701 L 246.184 399.701 Q 246.628 398.561 247.36 397.769 L 247.36 397.769 L 247.36 397.769 Q 248.092 396.977 249.028 396.557 L 249.028 396.557 L 249.028 396.557 Q 249.964 396.137 250.972 396.137 L 250.972 396.137 L 250.972 396.137 Q 252.076 396.137 252.952 396.521 L 252.952 396.521 L 252.952 396.521 Q 253.828 396.905 254.416 397.625 L 254.416 397.625 L 254.416 397.625 Q 255.004 398.345 255.316 399.353 L 255.316 399.353 L 255.316 399.353 Q 255.628 400.361 255.628 401.609 L 255.628 401.609 L 255.628 401.609 Q 255.628 401.921 255.616 402.221 L 255.616 402.221 L 255.616 402.221 Q 255.604 402.521 255.556 402.737 L 255.556 402.737 L 247.684 402.737 L 247.684 402.737 Q 247.804 404.609 248.848 405.701 L 248.848 405.701 L 248.848 405.701 Q 249.892 406.793 251.572 406.793 L 251.572 406.793 L 251.572 406.793 Q 252.412 406.793 253.12 406.541 L 253.12 406.541 L 253.12 406.541 Q 253.828 406.289 254.476 405.881 L 254.476 405.881 L 255.172 407.177 L 255.172 407.177 Q 254.404 407.657 253.468 408.017 L 253.468 408.017 L 253.468 408.017 Q 252.532 408.377 251.332 408.377 Z  M 247.66 401.321 L 247.66 401.321 L 253.9 401.321 L 253.9 401.321 Q 253.9 399.545 253.144 398.621 L 253.144 398.621 L 253.144 398.621 Q 252.388 397.697 251.02 397.697 L 251.02 397.697 L 251.02 397.697 Q 250.396 397.697 249.832 397.937 L 249.832 397.937 L 249.832 397.937 Q 249.268 398.177 248.812 398.645 L 248.812 398.645 L 248.812 398.645 Q 248.356 399.113 248.056 399.785 L 248.056 399.785 L 248.056 399.785 Q 247.756 400.457 247.66 401.321 Z  M 260.476 408.089 L 258.508 408.089 L 258.508 396.425 L 260.14 396.425 L 260.308 398.537 L 260.38 398.537 L 260.38 398.537 Q 260.98 397.433 261.832 396.785 L 261.832 396.785 L 261.832 396.785 Q 262.684 396.137 263.692 396.137 L 263.692 396.137 L 263.692 396.137 Q 264.388 396.137 264.94 396.377 L 264.94 396.377 L 264.556 398.105 L 264.556 398.105 Q 264.268 398.009 264.028 397.961 L 264.028 397.961 L 264.028 397.961 Q 263.788 397.913 263.428 397.913 L 263.428 397.913 L 263.428 397.913 Q 262.684 397.913 261.88 398.513 L 261.88 398.513 L 261.88 398.513 Q 261.076 399.113 260.476 400.601 L 260.476 400.601 L 260.476 408.089 Z  M 269.884 408.377 L 269.884 408.377 L 269.884 408.377 Q 268.636 408.377 267.508 407.921 L 267.508 407.921 L 267.508 407.921 Q 266.38 407.465 265.54 406.769 L 265.54 406.769 L 266.524 405.449 L 266.524 405.449 Q 267.292 406.073 268.096 406.457 L 268.096 406.457 L 268.096 406.457 Q 268.9 406.841 269.956 406.841 L 269.956 406.841 L 269.956 406.841 Q 271.108 406.841 271.684 406.313 L 271.684 406.313 L 271.684 406.313 Q 272.26 405.785 272.26 405.017 L 272.26 405.017 L 272.26 405.017 Q 272.26 404.561 272.02 404.225 L 272.02 404.225 L 272.02 404.225 Q 271.78 403.889 271.408 403.637 L 271.408 403.637 L 271.408 403.637 Q 271.036 403.385 270.556 403.193 L 270.556 403.193 L 270.556 403.193 Q 270.076 403.001 269.596 402.809 L 269.596 402.809 L 269.596 402.809 Q 268.972 402.593 268.348 402.317 L 268.348 402.317 L 268.348 402.317 Q 267.724 402.041 267.232 401.645 L 267.232 401.645 L 267.232 401.645 Q 266.74 401.249 266.428 400.721 L 266.428 400.721 L 266.428 400.721 Q 266.116 400.193 266.116 399.449 L 266.116 399.449 L 266.116 399.449 Q 266.116 398.753 266.392 398.141 L 266.392 398.141 L 266.392 398.141 Q 266.668 397.529 267.184 397.085 L 267.184 397.085 L 267.184 397.085 Q 267.7 396.641 268.444 396.389 L 268.444 396.389 L 268.444 396.389 Q 269.188 396.137 270.124 396.137 L 270.124 396.137 L 270.124 396.137 Q 271.228 396.137 272.152 396.521 L 272.152 396.521 L 272.152 396.521 Q 273.076 396.905 273.748 397.457 L 273.748 397.457 L 272.812 398.705 L 272.812 398.705 Q 272.212 398.249 271.564 397.961 L 271.564 397.961 L 271.564 397.961 Q 270.916 397.673 270.148 397.673 L 270.148 397.673 L 270.148 397.673 Q 269.044 397.673 268.528 398.177 L 268.528 398.177 L 268.528 398.177 Q 268.012 398.681 268.012 399.353 L 268.012 399.353 L 268.012 399.353 Q 268.012 399.761 268.228 400.061 L 268.228 400.061 L 268.228 400.061 Q 268.444 400.361 268.804 400.589 L 268.804 400.589 L 268.804 400.589 Q 269.164 400.817 269.632 400.997 L 269.632 400.997 L 269.632 400.997 Q 270.1 401.177 270.604 401.369 L 270.604 401.369 L 270.604 401.369 Q 271.228 401.609 271.864 401.873 L 271.864 401.873 L 271.864 401.873 Q 272.5 402.137 273.004 402.533 L 273.004 402.533 L 273.004 402.533 Q 273.508 402.929 273.832 403.505 L 273.832 403.505 L 273.832 403.505 Q 274.156 404.081 274.156 404.897 L 274.156 404.897 L 274.156 404.897 Q 274.156 405.617 273.88 406.241 L 273.88 406.241 L 273.88 406.241 Q 273.604 406.865 273.064 407.345 L 273.064 407.345 L 273.064 407.345 Q 272.524 407.825 271.72 408.101 L 271.72 408.101 L 271.72 408.101 Q 270.916 408.377 269.884 408.377 Z  M 145.156 408.089 L 143.188 408.089 L 143.188 396.425 L 144.82 396.425 L 144.988 398.105 L 145.06 398.105 L 145.06 398.105 Q 145.9 397.265 146.824 396.701 L 146.824 396.701 L 146.824 396.701 Q 147.748 396.137 148.972 396.137 L 148.972 396.137 L 148.972 396.137 Q 150.82 396.137 151.672 397.289 L 151.672 397.289 L 151.672 397.289 Q 152.524 398.441 152.524 400.697 L 152.524 400.697 L 152.524 408.089 L 150.556 408.089 L 150.556 400.961 L 150.556 400.961 Q 150.556 399.305 150.028 398.573 L 150.028 398.573 L 150.028 398.573 Q 149.5 397.841 148.348 397.841 L 148.348 397.841 L 148.348 397.841 Q 147.436 397.841 146.74 398.297 L 146.74 398.297 L 146.74 398.297 Q 146.044 398.753 145.156 399.641 L 145.156 399.641 L 145.156 408.089 Z  M 160.852 408.377 L 160.852 408.377 L 160.852 408.377 Q 159.772 408.377 158.8 407.969 L 158.8 407.969 L 158.8 407.969 Q 157.828 407.561 157.084 406.781 L 157.084 406.781 L 157.084 406.781 Q 156.34 406.001 155.896 404.861 L 155.896 404.861 L 155.896 404.861 Q 155.452 403.721 155.452 402.281 L 155.452 402.281 L 155.452 402.281 Q 155.452 400.817 155.896 399.677 L 155.896 399.677 L 155.896 399.677 Q 156.34 398.537 157.084 397.745 L 157.084 397.745 L 157.084 397.745 Q 157.828 396.953 158.8 396.545 L 158.8 396.545 L 158.8 396.545 Q 159.772 396.137 160.852 396.137 L 160.852 396.137 L 160.852 396.137 Q 161.932 396.137 162.904 396.545 L 162.904 396.545 L 162.904 396.545 Q 163.876 396.953 164.62 397.745 L 164.62 397.745 L 164.62 397.745 Q 165.364 398.537 165.808 399.677 L 165.808 399.677 L 165.808 399.677 Q 166.252 400.817 166.252 402.281 L 166.252 402.281 L 166.252 402.281 Q 166.252 403.721 165.808 404.861 L 165.808 404.861 L 165.808 404.861 Q 165.364 406.001 164.62 406.781 L 164.62 406.781 L 164.62 406.781 Q 163.876 407.561 162.904 407.969 L 162.904 407.969 L 162.904 407.969 Q 161.932 408.377 160.852 408.377 Z  M 160.852 406.745 L 160.852 406.745 L 160.852 406.745 Q 161.596 406.745 162.22 406.421 L 162.22 406.421 L 162.22 406.421 Q 162.844 406.097 163.288 405.509 L 163.288 405.509 L 163.288 405.509 Q 163.732 404.921 163.972 404.105 L 163.972 404.105 L 163.972 404.105 Q 164.212 403.289 164.212 402.281 L 164.212 402.281 L 164.212 402.281 Q 164.212 401.273 163.972 400.445 L 163.972 400.445 L 163.972 400.445 Q 163.732 399.617 163.288 399.017 L 163.288 399.017 L 163.288 399.017 Q 162.844 398.417 162.22 398.093 L 162.22 398.093 L 162.22 398.093 Q 161.596 397.769 160.852 397.769 L 160.852 397.769 L 160.852 397.769 Q 160.108 397.769 159.484 398.093 L 159.484 398.093 L 159.484 398.093 Q 158.86 398.417 158.416 399.017 L 158.416 399.017 L 158.416 399.017 Q 157.972 399.617 157.732 400.445 L 157.732 400.445 L 157.732 400.445 Q 157.492 401.273 157.492 402.281 L 157.492 402.281 L 157.492 402.281 Q 157.492 403.289 157.732 404.105 L 157.732 404.105 L 157.732 404.105 Q 157.972 404.921 158.416 405.509 L 158.416 405.509 L 158.416 405.509 Q 158.86 406.097 159.484 406.421 L 159.484 406.421 L 159.484 406.421 Q 160.108 406.745 160.852 406.745 Z  M 92.092 408.089 L 90.124 408.089 L 90.124 391.001 L 92.092 391.001 L 92.092 395.657 L 92.02 398.057 L 92.02 398.057 Q 92.86 397.265 93.772 396.701 L 93.772 396.701 L 93.772 396.701 Q 94.684 396.137 95.908 396.137 L 95.908 396.137 L 95.908 396.137 Q 97.756 396.137 98.608 397.289 L 98.608 397.289 L 98.608 397.289 Q 99.46 398.441 99.46 400.697 L 99.46 400.697 L 99.46 408.089 L 97.492 408.089 L 97.492 400.961 L 97.492 400.961 Q 97.492 399.305 96.964 398.573 L 96.964 398.573 L 96.964 398.573 Q 96.436 397.841 95.284 397.841 L 95.284 397.841 L 95.284 397.841 Q 94.372 397.841 93.676 398.297 L 93.676 398.297 L 93.676 398.297 Q 92.98 398.753 92.092 399.641 L 92.092 399.641 L 92.092 408.089 Z  M 105.868 408.377 L 105.868 408.377 L 105.868 408.377 Q 104.404 408.377 103.432 407.513 L 103.432 407.513 L 103.432 407.513 Q 102.46 406.649 102.46 405.065 L 102.46 405.065 L 102.46 405.065 Q 102.46 403.145 104.164 402.125 L 104.164 402.125 L 104.164 402.125 Q 105.868 401.105 109.612 400.697 L 109.612 400.697 L 109.612 400.697 Q 109.612 400.145 109.504 399.617 L 109.504 399.617 L 109.504 399.617 Q 109.396 399.089 109.132 398.681 L 109.132 398.681 L 109.132 398.681 Q 108.868 398.273 108.4 398.021 L 108.4 398.021 L 108.4 398.021 Q 107.932 397.769 107.212 397.769 L 107.212 397.769 L 107.212 397.769 Q 106.204 397.769 105.316 398.153 L 105.316 398.153 L 105.316 398.153 Q 104.428 398.537 103.732 399.017 L 103.732 399.017 L 102.964 397.649 L 102.964 397.649 Q 103.78 397.121 104.956 396.629 L 104.956 396.629 L 104.956 396.629 Q 106.132 396.137 107.548 396.137 L 107.548 396.137 L 107.548 396.137 Q 109.684 396.137 110.644 397.445 L 110.644 397.445 L 110.644 397.445 Q 111.604 398.753 111.604 400.937 L 111.604 400.937 L 111.604 408.089 L 109.972 408.089 L 109.804 406.697 L 109.732 406.697 L 109.732 406.697 Q 108.892 407.393 107.932 407.885 L 107.932 407.885 L 107.932 407.885 Q 106.972 408.377 105.868 408.377 Z  M 106.444 406.793 L 106.444 406.793 L 106.444 406.793 Q 107.284 406.793 108.028 406.397 L 108.028 406.397 L 108.028 406.397 Q 108.772 406.001 109.612 405.233 L 109.612 405.233 L 109.612 401.993 L 109.612 401.993 Q 108.148 402.185 107.152 402.449 L 107.152 402.449 L 107.152 402.449 Q 106.156 402.713 105.544 403.073 L 105.544 403.073 L 105.544 403.073 Q 104.932 403.433 104.656 403.901 L 104.656 403.901 L 104.656 403.901 Q 104.38 404.369 104.38 404.921 L 104.38 404.921 L 104.38 404.921 Q 104.38 405.929 104.98 406.361 L 104.98 406.361 L 104.98 406.361 Q 105.58 406.793 106.444 406.793 Z  M 120.1 408.089 L 117.796 408.089 L 113.596 396.425 L 115.636 396.425 L 117.844 403.049 L 117.844 403.049 Q 118.108 403.913 118.384 404.777 L 118.384 404.777 L 118.384 404.777 Q 118.66 405.641 118.924 406.481 L 118.924 406.481 L 119.02 406.481 L 119.02 406.481 Q 119.284 405.641 119.548 404.777 L 119.548 404.777 L 119.548 404.777 Q 119.812 403.913 120.076 403.049 L 120.076 403.049 L 122.284 396.425 L 124.228 396.425 L 120.1 408.089 Z  M 131.212 408.377 L 131.212 408.377 L 131.212 408.377 Q 130.036 408.377 129.016 407.957 L 129.016 407.957 L 129.016 407.957 Q 127.996 407.537 127.24 406.757 L 127.24 406.757 L 127.24 406.757 Q 126.484 405.977 126.052 404.849 L 126.052 404.849 L 126.052 404.849 Q 125.62 403.721 125.62 402.281 L 125.62 402.281 L 125.62 402.281 Q 125.62 400.841 126.064 399.701 L 126.064 399.701 L 126.064 399.701 Q 126.508 398.561 127.24 397.769 L 127.24 397.769 L 127.24 397.769 Q 127.972 396.977 128.908 396.557 L 128.908 396.557 L 128.908 396.557 Q 129.844 396.137 130.852 396.137 L 130.852 396.137 L 130.852 396.137 Q 131.956 396.137 132.832 396.521 L 132.832 396.521 L 132.832 396.521 Q 133.708 396.905 134.296 397.625 L 134.296 397.625 L 134.296 397.625 Q 134.884 398.345 135.196 399.353 L 135.196 399.353 L 135.196 399.353 Q 135.508 400.361 135.508 401.609 L 135.508 401.609 L 135.508 401.609 Q 135.508 401.921 135.496 402.221 L 135.496 402.221 L 135.496 402.221 Q 135.484 402.521 135.436 402.737 L 135.436 402.737 L 127.564 402.737 L 127.564 402.737 Q 127.684 404.609 128.728 405.701 L 128.728 405.701 L 128.728 405.701 Q 129.772 406.793 131.452 406.793 L 131.452 406.793 L 131.452 406.793 Q 132.292 406.793 133 406.541 L 133 406.541 L 133 406.541 Q 133.708 406.289 134.356 405.881 L 134.356 405.881 L 135.052 407.177 L 135.052 407.177 Q 134.284 407.657 133.348 408.017 L 133.348 408.017 L 133.348 408.017 Q 132.412 408.377 131.212 408.377 Z  M 127.54 401.321 L 127.54 401.321 L 133.78 401.321 L 133.78 401.321 Q 133.78 399.545 133.024 398.621 L 133.024 398.621 L 133.024 398.621 Q 132.268 397.697 130.9 397.697 L 130.9 397.697 L 130.9 397.697 Q 130.276 397.697 129.712 397.937 L 129.712 397.937 L 129.712 397.937 Q 129.148 398.177 128.692 398.645 L 128.692 398.645 L 128.692 398.645 Q 128.236 399.113 127.936 399.785 L 127.936 399.785 L 127.936 399.785 Q 127.636 400.457 127.54 401.321 Z  M 52.588 408.089 L 50.572 408.089 L 50.572 401.993 L 45.844 392.345 L 47.98 392.345 L 50.02 396.785 L 50.02 396.785 Q 50.404 397.649 50.764 398.489 L 50.764 398.489 L 50.764 398.489 Q 51.124 399.329 51.532 400.217 L 51.532 400.217 L 51.628 400.217 L 51.628 400.217 Q 52.036 399.329 52.444 398.489 L 52.444 398.489 L 52.444 398.489 Q 52.852 397.649 53.212 396.785 L 53.212 396.785 L 55.228 392.345 L 57.316 392.345 L 52.588 401.993 L 52.588 408.089 Z  M 63.796 408.377 L 63.796 408.377 L 63.796 408.377 Q 62.716 408.377 61.744 407.969 L 61.744 407.969 L 61.744 407.969 Q 60.772 407.561 60.028 406.781 L 60.028 406.781 L 60.028 406.781 Q 59.284 406.001 58.84 404.861 L 58.84 404.861 L 58.84 404.861 Q 58.396 403.721 58.396 402.281 L 58.396 402.281 L 58.396 402.281 Q 58.396 400.817 58.84 399.677 L 58.84 399.677 L 58.84 399.677 Q 59.284 398.537 60.028 397.745 L 60.028 397.745 L 60.028 397.745 Q 60.772 396.953 61.744 396.545 L 61.744 396.545 L 61.744 396.545 Q 62.716 396.137 63.796 396.137 L 63.796 396.137 L 63.796 396.137 Q 64.876 396.137 65.848 396.545 L 65.848 396.545 L 65.848 396.545 Q 66.82 396.953 67.564 397.745 L 67.564 397.745 L 67.564 397.745 Q 68.308 398.537 68.752 399.677 L 68.752 399.677 L 68.752 399.677 Q 69.196 400.817 69.196 402.281 L 69.196 402.281 L 69.196 402.281 Q 69.196 403.721 68.752 404.861 L 68.752 404.861 L 68.752 404.861 Q 68.308 406.001 67.564 406.781 L 67.564 406.781 L 67.564 406.781 Q 66.82 407.561 65.848 407.969 L 65.848 407.969 L 65.848 407.969 Q 64.876 408.377 63.796 408.377 Z  M 63.796 406.745 L 63.796 406.745 L 63.796 406.745 Q 64.54 406.745 65.164 406.421 L 65.164 406.421 L 65.164 406.421 Q 65.788 406.097 66.232 405.509 L 66.232 405.509 L 66.232 405.509 Q 66.676 404.921 66.916 404.105 L 66.916 404.105 L 66.916 404.105 Q 67.156 403.289 67.156 402.281 L 67.156 402.281 L 67.156 402.281 Q 67.156 401.273 66.916 400.445 L 66.916 400.445 L 66.916 400.445 Q 66.676 399.617 66.232 399.017 L 66.232 399.017 L 66.232 399.017 Q 65.788 398.417 65.164 398.093 L 65.164 398.093 L 65.164 398.093 Q 64.54 397.769 63.796 397.769 L 63.796 397.769 L 63.796 397.769 Q 63.052 397.769 62.428 398.093 L 62.428 398.093 L 62.428 398.093 Q 61.804 398.417 61.36 399.017 L 61.36 399.017 L 61.36 399.017 Q 60.916 399.617 60.676 400.445 L 60.676 400.445 L 60.676 400.445 Q 60.436 401.273 60.436 402.281 L 60.436 402.281 L 60.436 402.281 Q 60.436 403.289 60.676 404.105 L 60.676 404.105 L 60.676 404.105 Q 60.916 404.921 61.36 405.509 L 61.36 405.509 L 61.36 405.509 Q 61.804 406.097 62.428 406.421 L 62.428 406.421 L 62.428 406.421 Q 63.052 406.745 63.796 406.745 Z  M 75.676 408.377 L 75.676 408.377 L 75.676 408.377 Q 73.804 408.377 72.952 407.225 L 72.952 407.225 L 72.952 407.225 Q 72.1 406.073 72.1 403.817 L 72.1 403.817 L 72.1 396.425 L 74.092 396.425 L 74.092 403.553 L 74.092 403.553 Q 74.092 405.209 74.608 405.941 L 74.608 405.941 L 74.608 405.941 Q 75.124 406.673 76.276 406.673 L 76.276 406.673 L 76.276 406.673 Q 77.188 406.673 77.884 406.205 L 77.884 406.205 L 77.884 406.205 Q 78.58 405.737 79.42 404.705 L 79.42 404.705 L 79.42 396.425 L 81.388 396.425 L 81.388 408.089 L 79.756 408.089 L 79.588 406.265 L 79.516 406.265 L 79.516 406.265 Q 78.7 407.225 77.8 407.801 L 77.8 407.801 L 77.8 407.801 Q 76.9 408.377 75.676 408.377 Z " fill-rule="evenodd" fill="rgb(64,64,64)"/></g></svg>