<?xml version="1.0" standalone="no"?><!-- Generator: Gravit.io --><svg xmlns="http://www.w3.org/2000/svg" xmlns:xlink="http://www.w3.org/1999/xlink" style="isolation:isolate" viewBox="73.672 159.724 172.656 248.551" width="172.656" height="248.551"><g><path d=" M 188.872 403.547 L 188.872 403.547 L 188.872 403.547 Q 187.696 403.547 186.676 403.128 L 186.676 403.128 L 186.676 403.128 Q 185.656 402.708 184.9 401.928 L 184.9 401.928 L 184.9 401.928 Q 184.144 401.148 183.712 400.02 L 183.712 400.02 L 183.712 400.02 Q 183.28 398.891 183.28 397.452 L 183.28 397.452 L 183.28 397.452 Q 183.28 396.012 183.724 394.872 L 183.724 394.872 L 183.724 394.872 Q 184.168 393.732 184.9 392.939 L 184.9 392.939 L 184.9 392.939 Q 185.632 392.148 186.568 391.728 L 186.568 391.728 L 186.568 391.728 Q 187.504 391.308 188.512 391.308 L 188.512 391.308 L 188.512 391.308 Q 189.616 391.308 190.492 391.692 L 190.492 391.692 L 190.492 391.692 Q 191.368 392.076 191.956 392.796 L 191.956 392.796 L 191.956 392.796 Q 192.544 393.516 192.856 394.524 L 192.856 394.524 L 192.856 394.524 Q 193.168 395.532 193.168 396.779 L 193.168 396.779 L 193.168 396.779 Q 193.168 397.092 193.156 397.391 L 193.156 397.391 L 193.156 397.391 Q 193.144 397.692 193.096 397.908 L 193.096 397.908 L 185.224 397.908 L 185.224 397.908 Q 185.344 399.779 186.388 400.872 L 186.388 400.872 L 186.388 400.872 Q 187.432 401.964 189.112 401.964 L 189.112 401.964 L 189.112 401.964 Q 189.952 401.964 190.66 401.711 L 190.66 401.711 L 190.66 401.711 Q 191.368 401.46 192.016 401.051 L 192.016 401.051 L 192.712 402.348 L 192.712 402.348 Q 191.944 402.827 191.008 403.188 L 191.008 403.188 L 191.008 403.188 Q 190.072 403.547 188.872 403.547 Z  M 185.2 396.491 L 185.2 396.491 L 191.44 396.491 L 191.44 396.491 Q 191.44 394.715 190.684 393.792 L 190.684 393.792 L 190.684 393.792 Q 189.928 392.868 188.56 392.868 L 188.56 392.868 L 188.56 392.868 Q 187.936 392.868 187.372 393.107 L 187.372 393.107 L 187.372 393.107 Q 186.808 393.348 186.352 393.816 L 186.352 393.816 L 186.352 393.816 Q 185.896 394.284 185.596 394.956 L 185.596 394.956 L 185.596 394.956 Q 185.296 395.628 185.2 396.491 Z  M 198.016 403.26 L 196.048 403.26 L 196.048 391.596 L 197.68 391.596 L 197.848 393.275 L 197.92 393.275 L 197.92 393.275 Q 198.688 392.435 199.588 391.872 L 199.588 391.872 L 199.588 391.872 Q 200.488 391.308 201.544 391.308 L 201.544 391.308 L 201.544 391.308 Q 202.888 391.308 203.644 391.896 L 203.644 391.896 L 203.644 391.896 Q 204.4 392.484 204.76 393.54 L 204.76 393.54 L 204.76 393.54 Q 205.672 392.532 206.596 391.92 L 206.596 391.92 L 206.596 391.92 Q 207.52 391.308 208.6 391.308 L 208.6 391.308 L 208.6 391.308 Q 210.4 391.308 211.276 392.46 L 211.276 392.46 L 211.276 392.46 Q 212.152 393.611 212.152 395.868 L 212.152 395.868 L 212.152 403.26 L 210.184 403.26 L 210.184 396.132 L 210.184 396.132 Q 210.184 394.476 209.656 393.744 L 209.656 393.744 L 209.656 393.744 Q 209.128 393.012 208.024 393.012 L 208.024 393.012 L 208.024 393.012 Q 206.704 393.012 205.096 394.812 L 205.096 394.812 L 205.096 403.26 L 203.128 403.26 L 203.128 396.132 L 203.128 396.132 Q 203.128 394.476 202.6 393.744 L 202.6 393.744 L 202.6 393.744 Q 202.072 393.012 200.944 393.012 L 200.944 393.012 L 200.944 393.012 Q 199.624 393.012 198.016 394.812 L 198.016 394.812 L 198.016 403.26 Z  M 217.912 408.18 L 215.944 408.18 L 215.944 391.596 L 217.576 391.596 L 217.744 392.939 L 217.816 392.939 L 217.816 392.939 Q 218.608 392.267 219.556 391.788 L 219.556 391.788 L 219.556 391.788 Q 220.504 391.308 221.536 391.308 L 221.536 391.308 L 221.536 391.308 Q 222.664 391.308 223.528 391.728 L 223.528 391.728 L 223.528 391.728 Q 224.392 392.148 224.968 392.928 L 224.968 392.928 L 224.968 392.928 Q 225.544 393.708 225.844 394.8 L 225.844 394.8 L 225.844 394.8 Q 226.144 395.891 226.144 397.26 L 226.144 397.26 L 226.144 397.26 Q 226.144 398.748 225.736 399.912 L 225.736 399.912 L 225.736 399.912 Q 225.328 401.076 224.632 401.891 L 224.632 401.891 L 224.632 401.891 Q 223.936 402.708 223.024 403.128 L 223.024 403.128 L 223.024 403.128 Q 222.112 403.547 221.104 403.547 L 221.104 403.547 L 221.104 403.547 Q 220.288 403.547 219.484 403.188 L 219.484 403.188 L 219.484 403.188 Q 218.68 402.827 217.864 402.204 L 217.864 402.204 L 217.912 404.244 L 217.912 408.18 Z  M 220.768 401.891 L 220.768 401.891 L 220.768 401.891 Q 221.488 401.891 222.1 401.568 L 222.1 401.568 L 222.1 401.568 Q 222.712 401.244 223.156 400.655 L 223.156 400.655 L 223.156 400.655 Q 223.6 400.068 223.852 399.204 L 223.852 399.204 L 223.852 399.204 Q 224.104 398.34 224.104 397.26 L 224.104 397.26 L 224.104 397.26 Q 224.104 396.3 223.936 395.508 L 223.936 395.508 L 223.936 395.508 Q 223.768 394.715 223.396 394.152 L 223.396 394.152 L 223.396 394.152 Q 223.024 393.588 222.436 393.275 L 222.436 393.275 L 222.436 393.275 Q 221.848 392.964 221.032 392.964 L 221.032 392.964 L 221.032 392.964 Q 220.288 392.964 219.532 393.372 L 219.532 393.372 L 219.532 393.372 Q 218.776 393.779 217.912 394.547 L 217.912 394.547 L 217.912 400.667 L 217.912 400.667 Q 218.704 401.34 219.448 401.615 L 219.448 401.615 L 219.448 401.615 Q 220.192 401.891 220.768 401.891 Z  M 232.936 403.547 L 232.936 403.547 L 232.936 403.547 Q 232 403.547 231.364 403.26 L 231.364 403.26 L 231.364 403.26 Q 230.728 402.972 230.332 402.468 L 230.332 402.468 L 230.332 402.468 Q 229.936 401.964 229.768 401.244 L 229.768 401.244 L 229.768 401.244 Q 229.6 400.524 229.6 399.659 L 229.6 399.659 L 229.6 393.204 L 227.872 393.204 L 227.872 391.715 L 229.696 391.596 L 229.936 388.331 L 231.592 388.331 L 231.592 391.596 L 234.736 391.596 L 234.736 393.204 L 231.592 393.204 L 231.592 399.684 L 231.592 399.684 Q 231.592 400.763 231.988 401.352 L 231.988 401.352 L 231.988 401.352 Q 232.384 401.939 233.392 401.939 L 233.392 401.939 L 233.392 401.939 Q 233.704 401.939 234.064 401.844 L 234.064 401.844 L 234.064 401.844 Q 234.424 401.748 234.712 401.628 L 234.712 401.628 L 235.096 403.115 L 235.096 403.115 Q 234.616 403.284 234.052 403.416 L 234.052 403.416 L 234.052 403.416 Q 233.488 403.547 232.936 403.547 Z  M 237.568 408.275 L 237.568 408.275 L 237.568 408.275 Q 237.16 408.275 236.824 408.215 L 236.824 408.215 L 236.824 408.215 Q 236.488 408.155 236.2 408.036 L 236.2 408.036 L 236.584 406.476 L 236.584 406.476 Q 236.776 406.524 237.016 406.584 L 237.016 406.584 L 237.016 406.584 Q 237.256 406.644 237.472 406.644 L 237.472 406.644 L 237.472 406.644 Q 238.48 406.644 239.116 405.935 L 239.116 405.935 L 239.116 405.935 Q 239.752 405.228 240.112 404.148 L 240.112 404.148 L 240.376 403.284 L 235.696 391.596 L 237.736 391.596 L 240.112 398.051 L 240.112 398.051 Q 240.376 398.819 240.676 399.672 L 240.676 399.672 L 240.676 399.672 Q 240.976 400.524 241.24 401.34 L 241.24 401.34 L 241.336 401.34 L 241.336 401.34 Q 241.6 400.547 241.84 399.684 L 241.84 399.684 L 241.84 399.684 Q 242.08 398.819 242.32 398.051 L 242.32 398.051 L 244.408 391.596 L 246.328 391.596 L 241.936 404.219 L 241.936 404.219 Q 241.624 405.084 241.24 405.827 L 241.24 405.827 L 241.24 405.827 Q 240.856 406.572 240.328 407.111 L 240.328 407.111 L 240.328 407.111 Q 239.8 407.652 239.128 407.964 L 239.128 407.964 L 239.128 407.964 Q 238.456 408.275 237.568 408.275 Z  M 165.352 403.26 L 163.384 403.26 L 163.384 391.596 L 165.352 391.596 L 165.352 403.26 Z  M 164.392 389.196 L 164.392 389.196 L 164.392 389.196 Q 163.816 389.196 163.42 388.835 L 163.42 388.835 L 163.42 388.835 Q 163.024 388.476 163.024 387.924 L 163.024 387.924 L 163.024 387.924 Q 163.024 387.348 163.42 386.999 L 163.42 386.999 L 163.42 386.999 Q 163.816 386.652 164.392 386.652 L 164.392 386.652 L 164.392 386.652 Q 164.968 386.652 165.364 386.999 L 165.364 386.999 L 165.364 386.999 Q 165.76 387.348 165.76 387.924 L 165.76 387.924 L 165.76 387.924 Q 165.76 388.476 165.364 388.835 L 165.364 388.835 L 165.364 388.835 Q 164.968 389.196 164.392 389.196 Z  M 172.336 403.547 L 172.336 403.547 L 172.336 403.547 Q 171.088 403.547 169.96 403.092 L 169.96 403.092 L 169.96 403.092 Q 168.832 402.636 167.992 401.939 L 167.992 401.939 L 168.976 400.62 L 168.976 400.62 Q 169.744 401.244 170.548 401.628 L 170.548 401.628 L 170.548 401.628 Q 171.352 402.012 172.408 402.012 L 172.408 402.012 L 172.408 402.012 Q 173.56 402.012 174.136 401.484 L 174.136 401.484 L 174.136 401.484 Q 174.712 400.956 174.712 400.188 L 174.712 400.188 L 174.712 400.188 Q 174.712 399.732 174.472 399.396 L 174.472 399.396 L 174.472 399.396 Q 174.232 399.059 173.86 398.808 L 173.86 398.808 L 173.86 398.808 Q 173.488 398.555 173.008 398.364 L 173.008 398.364 L 173.008 398.364 Q 172.528 398.172 172.048 397.98 L 172.048 397.98 L 172.048 397.98 Q 171.424 397.763 170.8 397.487 L 170.8 397.487 L 170.8 397.487 Q 170.176 397.211 169.684 396.816 L 169.684 396.816 L 169.684 396.816 Q 169.192 396.42 168.88 395.891 L 168.88 395.891 L 168.88 395.891 Q 168.568 395.364 168.568 394.62 L 168.568 394.62 L 168.568 394.62 Q 168.568 393.924 168.844 393.312 L 168.844 393.312 L 168.844 393.312 Q 169.12 392.7 169.636 392.256 L 169.636 392.256 L 169.636 392.256 Q 170.152 391.812 170.896 391.559 L 170.896 391.559 L 170.896 391.559 Q 171.64 391.308 172.576 391.308 L 172.576 391.308 L 172.576 391.308 Q 173.68 391.308 174.604 391.692 L 174.604 391.692 L 174.604 391.692 Q 175.528 392.076 176.2 392.628 L 176.2 392.628 L 175.264 393.875 L 175.264 393.875 Q 174.664 393.42 174.016 393.132 L 174.016 393.132 L 174.016 393.132 Q 173.368 392.844 172.6 392.844 L 172.6 392.844 L 172.6 392.844 Q 171.496 392.844 170.98 393.348 L 170.98 393.348 L 170.98 393.348 Q 170.464 393.852 170.464 394.524 L 170.464 394.524 L 170.464 394.524 Q 170.464 394.931 170.68 395.232 L 170.68 395.232 L 170.68 395.232 Q 170.896 395.532 171.256 395.76 L 171.256 395.76 L 171.256 395.76 Q 171.616 395.987 172.084 396.167 L 172.084 396.167 L 172.084 396.167 Q 172.552 396.348 173.056 396.54 L 173.056 396.54 L 173.056 396.54 Q 173.68 396.779 174.316 397.043 L 174.316 397.043 L 174.316 397.043 Q 174.952 397.308 175.456 397.704 L 175.456 397.704 L 175.456 397.704 Q 175.96 398.099 176.284 398.676 L 176.284 398.676 L 176.284 398.676 Q 176.608 399.252 176.608 400.068 L 176.608 400.068 L 176.608 400.068 Q 176.608 400.788 176.332 401.412 L 176.332 401.412 L 176.332 401.412 Q 176.056 402.036 175.516 402.516 L 175.516 402.516 L 175.516 402.516 Q 174.976 402.995 174.172 403.271 L 174.172 403.271 L 174.172 403.271 Q 173.368 403.547 172.336 403.547 Z  M 131.44 403.547 L 131.44 403.547 L 131.44 403.547 Q 130.624 403.547 129.748 403.152 L 129.748 403.152 L 129.748 403.152 Q 128.872 402.756 128.104 402.059 L 128.104 402.059 L 128.032 402.059 L 127.864 403.26 L 126.28 403.26 L 126.28 386.172 L 128.248 386.172 L 128.248 390.827 L 128.2 392.939 L 128.2 392.939 Q 128.992 392.244 129.928 391.775 L 129.928 391.775 L 129.928 391.775 Q 130.864 391.308 131.848 391.308 L 131.848 391.308 L 131.848 391.308 Q 132.976 391.308 133.84 391.728 L 133.84 391.728 L 133.84 391.728 Q 134.704 392.148 135.292 392.928 L 135.292 392.928 L 135.292 392.928 Q 135.88 393.708 136.18 394.8 L 136.18 394.8 L 136.18 394.8 Q 136.48 395.891 136.48 397.236 L 136.48 397.236 L 136.48 397.236 Q 136.48 398.723 136.072 399.9 L 136.072 399.9 L 136.072 399.9 Q 135.664 401.076 134.968 401.891 L 134.968 401.891 L 134.968 401.891 Q 134.272 402.708 133.36 403.128 L 133.36 403.128 L 133.36 403.128 Q 132.448 403.547 131.44 403.547 Z  M 131.104 401.891 L 131.104 401.891 L 131.104 401.891 Q 131.824 401.891 132.436 401.568 L 132.436 401.568 L 132.436 401.568 Q 133.048 401.244 133.492 400.655 L 133.492 400.655 L 133.492 400.655 Q 133.936 400.068 134.188 399.204 L 134.188 399.204 L 134.188 399.204 Q 134.44 398.34 134.44 397.26 L 134.44 397.26 L 134.44 397.26 Q 134.44 396.3 134.272 395.508 L 134.272 395.508 L 134.272 395.508 Q 134.104 394.715 133.732 394.152 L 133.732 394.152 L 133.732 394.152 Q 133.36 393.588 132.772 393.275 L 132.772 393.275 L 132.772 393.275 Q 132.184 392.964 131.368 392.964 L 131.368 392.964 L 131.368 392.964 Q 129.952 392.964 128.248 394.547 L 128.248 394.547 L 128.248 400.667 L 128.248 400.667 Q 129.016 401.34 129.772 401.615 L 129.772 401.615 L 129.772 401.615 Q 130.528 401.891 131.104 401.891 Z  M 141.52 403.26 L 139.552 403.26 L 139.552 391.596 L 141.52 391.596 L 141.52 403.26 Z  M 140.56 389.196 L 140.56 389.196 L 140.56 389.196 Q 139.984 389.196 139.588 388.835 L 139.588 388.835 L 139.588 388.835 Q 139.192 388.476 139.192 387.924 L 139.192 387.924 L 139.192 387.924 Q 139.192 387.348 139.588 386.999 L 139.588 386.999 L 139.588 386.999 Q 139.984 386.652 140.56 386.652 L 140.56 386.652 L 140.56 386.652 Q 141.136 386.652 141.532 386.999 L 141.532 386.999 L 141.532 386.999 Q 141.928 387.348 141.928 387.924 L 141.928 387.924 L 141.928 387.924 Q 141.928 388.476 141.532 388.835 L 141.532 388.835 L 141.532 388.835 Q 141.136 389.196 140.56 389.196 Z  M 147.424 403.26 L 145.456 403.26 L 145.456 391.596 L 147.088 391.596 L 147.256 393.275 L 147.328 393.275 L 147.328 393.275 Q 148.168 392.435 149.092 391.872 L 149.092 391.872 L 149.092 391.872 Q 150.016 391.308 151.24 391.308 L 151.24 391.308 L 151.24 391.308 Q 153.088 391.308 153.94 392.46 L 153.94 392.46 L 153.94 392.46 Q 154.792 393.611 154.792 395.868 L 154.792 395.868 L 154.792 403.26 L 152.824 403.26 L 152.824 396.132 L 152.824 396.132 Q 152.824 394.476 152.296 393.744 L 152.296 393.744 L 152.296 393.744 Q 151.768 393.012 150.616 393.012 L 150.616 393.012 L 150.616 393.012 Q 149.704 393.012 149.008 393.468 L 149.008 393.468 L 149.008 393.468 Q 148.312 393.924 147.424 394.812 L 147.424 394.812 L 147.424 403.26 Z  M 80.416 403.26 L 78.4 403.26 L 78.4 397.163 L 73.672 387.516 L 75.808 387.516 L 77.848 391.956 L 77.848 391.956 Q 78.232 392.819 78.592 393.659 L 78.592 393.659 L 78.592 393.659 Q 78.952 394.499 79.36 395.387 L 79.36 395.387 L 79.456 395.387 L 79.456 395.387 Q 79.864 394.499 80.272 393.659 L 80.272 393.659 L 80.272 393.659 Q 80.68 392.819 81.04 391.956 L 81.04 391.956 L 83.056 387.516 L 85.144 387.516 L 80.416 397.163 L 80.416 403.26 Z  M 91.624 403.547 L 91.624 403.547 L 91.624 403.547 Q 90.544 403.547 89.572 403.14 L 89.572 403.14 L 89.572 403.14 Q 88.6 402.732 87.856 401.952 L 87.856 401.952 L 87.856 401.952 Q 87.112 401.172 86.668 400.032 L 86.668 400.032 L 86.668 400.032 Q 86.224 398.891 86.224 397.452 L 86.224 397.452 L 86.224 397.452 Q 86.224 395.987 86.668 394.848 L 86.668 394.848 L 86.668 394.848 Q 87.112 393.708 87.856 392.916 L 87.856 392.916 L 87.856 392.916 Q 88.6 392.124 89.572 391.715 L 89.572 391.715 L 89.572 391.715 Q 90.544 391.308 91.624 391.308 L 91.624 391.308 L 91.624 391.308 Q 92.704 391.308 93.676 391.715 L 93.676 391.715 L 93.676 391.715 Q 94.648 392.124 95.392 392.916 L 95.392 392.916 L 95.392 392.916 Q 96.136 393.708 96.58 394.848 L 96.58 394.848 L 96.58 394.848 Q 97.024 395.987 97.024 397.452 L 97.024 397.452 L 97.024 397.452 Q 97.024 398.891 96.58 400.032 L 96.58 400.032 L 96.58 400.032 Q 96.136 401.172 95.392 401.952 L 95.392 401.952 L 95.392 401.952 Q 94.648 402.732 93.676 403.14 L 93.676 403.14 L 93.676 403.14 Q 92.704 403.547 91.624 403.547 Z  M 91.624 401.916 L 91.624 401.916 L 91.624 401.916 Q 92.368 401.916 92.992 401.592 L 92.992 401.592 L 92.992 401.592 Q 93.616 401.267 94.06 400.68 L 94.06 400.68 L 94.06 400.68 Q 94.504 400.092 94.744 399.275 L 94.744 399.275 L 94.744 399.275 Q 94.984 398.46 94.984 397.452 L 94.984 397.452 L 94.984 397.452 Q 94.984 396.443 94.744 395.615 L 94.744 395.615 L 94.744 395.615 Q 94.504 394.788 94.06 394.188 L 94.06 394.188 L 94.06 394.188 Q 93.616 393.588 92.992 393.263 L 92.992 393.263 L 92.992 393.263 Q 92.368 392.939 91.624 392.939 L 91.624 392.939 L 91.624 392.939 Q 90.88 392.939 90.256 393.263 L 90.256 393.263 L 90.256 393.263 Q 89.632 393.588 89.188 394.188 L 89.188 394.188 L 89.188 394.188 Q 88.744 394.788 88.504 395.615 L 88.504 395.615 L 88.504 395.615 Q 88.264 396.443 88.264 397.452 L 88.264 397.452 L 88.264 397.452 Q 88.264 398.46 88.504 399.275 L 88.504 399.275 L 88.504 399.275 Q 88.744 400.092 89.188 400.68 L 89.188 400.68 L 89.188 400.68 Q 89.632 401.267 90.256 401.592 L 90.256 401.592 L 90.256 401.592 Q 90.88 401.916 91.624 401.916 Z  M 103.504 403.547 L 103.504 403.547 L 103.504 403.547 Q 101.632 403.547 100.78 402.396 L 100.78 402.396 L 100.78 402.396 Q 99.928 401.244 99.928 398.987 L 99.928 398.987 L 99.928 391.596 L 101.92 391.596 L 101.92 398.723 L 101.92 398.723 Q 101.92 400.379 102.436 401.111 L 102.436 401.111 L 102.436 401.111 Q 102.952 401.844 104.104 401.844 L 104.104 401.844 L 104.104 401.844 Q 105.016 401.844 105.712 401.375 L 105.712 401.375 L 105.712 401.375 Q 106.408 400.908 107.248 399.875 L 107.248 399.875 L 107.248 391.596 L 109.216 391.596 L 109.216 403.26 L 107.584 403.26 L 107.416 401.435 L 107.344 401.435 L 107.344 401.435 Q 106.528 402.396 105.628 402.972 L 105.628 402.972 L 105.628 402.972 Q 104.728 403.547 103.504 403.547 Z  M 115.12 403.26 L 113.152 403.26 L 113.152 391.596 L 114.784 391.596 L 114.952 393.708 L 115.024 393.708 L 115.024 393.708 Q 115.624 392.603 116.476 391.956 L 116.476 391.956 L 116.476 391.956 Q 117.328 391.308 118.336 391.308 L 118.336 391.308 L 118.336 391.308 Q 119.032 391.308 119.584 391.547 L 119.584 391.547 L 119.2 393.275 L 119.2 393.275 Q 118.912 393.18 118.672 393.132 L 118.672 393.132 L 118.672 393.132 Q 118.432 393.084 118.072 393.084 L 118.072 393.084 L 118.072 393.084 Q 117.328 393.084 116.524 393.684 L 116.524 393.684 L 116.524 393.684 Q 115.72 394.284 115.12 395.771 L 115.12 395.771 L 115.12 403.26 Z " fill-rule="evenodd" fill="rgb(64,64,64)"/><path d=" M 90.769 159.724 C 84.831 159.748 80.024 164.556 80 170.494 C 80 173.694 81.646 176.346 83.883 178.309 L 97.498 336.432 C 98.202 344.382 104.856 350.482 112.837 350.494 L 207.163 350.494 C 215.143 350.48 221.795 344.381 222.498 336.432 L 236.117 178.318 C 238.354 176.349 240 173.703 240 170.494 C 240 164.58 235.145 159.724 229.231 159.724 L 90.769 159.724 Z  M 90.769 165.878 L 229.231 165.878 C 231.815 165.878 233.846 167.909 233.846 170.494 C 233.846 172.186 232.945 173.62 231.575 174.435 L 230.215 175.254 L 216.357 335.9 C 215.966 340.682 211.961 344.359 207.163 344.34 L 112.837 344.34 C 108.038 344.364 104.031 340.686 103.643 335.903 L 89.785 175.254 L 88.425 174.435 C 87.018 173.621 86.153 172.119 86.154 170.494 C 86.154 167.909 88.185 165.878 90.769 165.878 Z  M 98.462 175.109 C 96.769 175.109 95.385 176.494 95.385 178.186 C 95.385 179.878 96.769 181.263 98.462 181.263 C 100.154 181.263 101.538 179.878 101.538 178.186 C 101.538 176.494 100.154 175.109 98.462 175.109 Z  M 110.769 175.109 C 109.077 175.109 107.692 176.494 107.692 178.186 C 107.692 179.878 109.077 181.263 110.769 181.263 C 112.462 181.263 113.846 179.878 113.846 178.186 C 113.846 176.494 112.462 175.109 110.769 175.109 Z  M 123.077 175.109 C 121.385 175.109 120 176.494 120 178.186 C 120 179.878 121.385 181.263 123.077 181.263 C 124.769 181.263 126.154 179.878 126.154 178.186 C 126.154 176.494 124.769 175.109 123.077 175.109 Z  M 135.385 175.109 C 133.692 175.109 132.308 176.494 132.308 178.186 C 132.308 179.878 133.692 181.263 135.385 181.263 C 137.077 181.263 138.462 179.878 138.462 178.186 C 138.462 176.494 137.077 175.109 135.385 175.109 Z  M 147.692 175.109 C 146 175.109 144.615 176.494 144.615 178.186 C 144.615 179.878 146 181.263 147.692 181.263 C 149.385 181.263 150.769 179.878 150.769 178.186 C 150.769 176.494 149.385 175.109 147.692 175.109 Z  M 160 175.109 C 158.308 175.109 156.923 176.494 156.923 178.186 C 156.923 179.878 158.308 181.263 160 181.263 C 161.692 181.263 163.077 179.878 163.077 178.186 C 163.077 176.494 161.692 175.109 160 175.109 Z  M 172.308 175.109 C 170.615 175.109 169.231 176.494 169.231 178.186 C 169.231 179.878 170.615 181.263 172.308 181.263 C 174 181.263 175.385 179.878 175.385 178.186 C 175.385 176.494 174 175.109 172.308 175.109 Z  M 184.615 175.109 C 182.923 175.109 181.538 176.494 181.538 178.186 C 181.538 179.878 182.923 181.263 184.615 181.263 C 186.308 181.263 187.692 179.878 187.692 178.186 C 187.692 176.494 186.308 175.109 184.615 175.109 Z  M 196.923 175.109 C 195.231 175.109 193.846 176.494 193.846 178.186 C 193.846 179.878 195.231 181.263 196.923 181.263 C 198.615 181.263 200 179.878 200 178.186 C 200 176.494 198.615 175.109 196.923 175.109 Z  M 209.231 175.109 C 207.538 175.109 206.154 176.494 206.154 178.186 C 206.154 179.878 207.538 181.263 209.231 181.263 C 210.923 181.263 212.308 179.878 212.308 178.186 C 212.308 176.494 210.923 175.109 209.231 175.109 Z  M 221.538 175.109 C 219.846 175.109 218.462 176.494 218.462 178.186 C 218.462 179.878 219.846 181.263 221.538 181.263 C 223.231 181.263 224.615 179.878 224.615 178.186 C 224.615 176.494 223.231 175.109 221.538 175.109 Z " fill="rgb(64,64,64)"/></g></svg>