<?xml version="1.0" standalone="no"?><!-- Generator: Gravit.io --><svg xmlns="http://www.w3.org/2000/svg" xmlns:xlink="http://www.w3.org/1999/xlink" style="isolation:isolate" viewBox="20 28 30 30" width="35" height="35"><path d=" M 50 43 C 50 34.748 43.253 28 35 28 C 26.748 28 20 34.748 20 43 C 20 51.253 26.748 58 35 58 C 43.253 58 50 51.253 50 43 Z  M 33.5 50.003 C 29.873 47.503 26.5 43.753 26.378 43.498 C 26.378 43.376 26.25 43.25 26.25 43 C 26.25 42.75 26.378 42.625 26.5 42.375 C 26.625 42.248 30 38.375 33.623 35.875 C 33.878 35.628 34.248 35.628 34.624 35.875 C 34.751 36.125 35 36.375 35 36.75 L 35 40.003 C 35 40.003 42.628 40.373 42.998 40.628 C 43.501 40.998 43.75 42.125 43.75 43 C 43.75 43.875 43.375 44.875 42.998 45.25 C 42.628 45.5 35 45.998 35 45.998 L 35 49.25 C 35 49.625 34.873 49.875 34.503 50.003 C 34.248 50.251 33.878 50.251 33.501 50.003 L 33.5 50.003 Z " fill="rgba(64,64,64,0.9)"/></svg>